<?xml version="1.0" standalone="no"?>
<!DOCTYPE svg PUBLIC "-//W3C//DTD SVG 20010904//EN"
 "http://www.w3.org/TR/2001/REC-SVG-20010904/DTD/svg10.dtd">
<svg version="1.0" xmlns="http://www.w3.org/2000/svg"
 width="960.000000pt" height="540.000000pt" viewBox="0 0 960.000000 540.000000"
 preserveAspectRatio="xMidYMid meet">
<metadata>
Created by potrace 1.16, written by Peter Selinger 2001-2019
</metadata>
<g transform="translate(0.000000,540.000000) scale(0.100000,-0.100000)"
fill="#000000" stroke="none">
<path d="M7 5393 c-12 -11 -8 -2053 3 -2053 6 0 10 -7 10 -15 0 -8 -4 -15 -10
-15 -6 0 -9 -110 -9 -290 0 -221 3 -290 12 -290 8 0 6 -4 -3 -10 -8 -5 -10
-10 -5 -10 6 0 16 5 23 12 8 8 12 9 12 1 0 -20 -12 -43 -22 -43 -5 0 -6 5 -3
10 3 6 1 10 -4 10 -6 0 -11 -11 -11 -25 0 -24 9 -29 47 -28 6 0 9 -6 6 -13 -4
-12 -8 -12 -20 -2 -24 20 -33 -9 -33 -109 l0 -93 79 0 c90 0 83 -9 96 113 l6
57 -61 0 c-59 0 -60 1 -49 21 11 21 8 65 -6 102 -7 17 -6 17 24 0 20 -12 31
-26 31 -40 0 -16 6 -23 20 -23 10 0 23 -8 29 -17 5 -10 13 -14 18 -9 4 5 2 11
-4 13 -7 3 -13 11 -13 19 0 9 -5 12 -12 8 -8 -5 -9 3 -5 29 4 29 2 37 -9 37
-8 0 -12 4 -9 10 3 6 13 6 23 1 54 -27 73 -33 96 -29 22 5 26 2 27 -21 l0 -26
10 23 c5 13 6 28 3 34 -6 10 16 72 23 64 3 -2 0 -13 -6 -23 -7 -13 -6 -42 3
-94 7 -41 15 -67 17 -59 3 13 6 13 22 -2 16 -17 13 -18 -67 -18 l-85 0 -6 -58
c-3 -31 -9 -69 -11 -84 l-6 -28 121 0 c66 0 122 3 124 8 3 4 8 42 12 85 6 74
6 77 -14 77 -17 0 -21 6 -21 30 0 36 26 42 33 8 3 -16 5 -13 7 12 l2 35 7 -30
c4 -16 5 -74 2 -128 l-6 -97 37 0 c52 0 57 -18 6 -22 l-43 -3 -12 -145 c-6
-80 -14 -169 -17 -197 -6 -51 -5 -53 19 -53 16 0 25 6 25 15 0 8 -6 15 -12 15
-9 0 -8 3 2 10 11 7 14 26 12 78 -1 55 2 71 13 76 9 3 18 0 20 -7 9 -28 12
-86 5 -94 -5 -4 -10 -58 -12 -120 -2 -61 -5 -114 -8 -116 -3 -2 -17 -7 -32
-11 -24 -5 -28 -3 -29 16 -1 16 -3 18 -6 6 -2 -10 -10 -15 -19 -11 -8 3 -22 2
-31 -3 -20 -9 -29 -10 -96 -17 -27 -2 -55 -11 -63 -18 -38 -37 -74 -82 -74
-94 0 -8 -9 -11 -25 -8 -24 5 -54 40 -67 78 -6 19 -6 19 -7 -1 -1 -12 -8 -27
-16 -34 -18 -15 -19 -37 -2 -43 9 -4 9 -6 0 -6 -10 -1 -13 -86 -13 -366 l0
-365 22 -1 23 0 -22 -11 c-25 -12 -31 -28 -10 -28 8 0 7 -3 -3 -10 -8 -5 -11
-12 -7 -17 4 -4 17 -2 27 5 25 15 47 15 56 0 4 -7 3 -8 -5 -4 -6 4 -24 -2 -40
-13 -22 -16 -31 -18 -34 -9 -3 7 -6 -26 -6 -74 -1 -81 8 -110 23 -73 7 19 22
19 30 -1 4 -10 -4 -21 -24 -32 l-30 -17 0 -187 c0 -169 2 -187 17 -191 17 -4
17 -5 1 -6 -16 -1 -18 -16 -18 -161 l0 -160 604 0 c468 0 606 3 609 13 4 9 8
9 14 1 12 -17 375 -17 385 -1 6 9 8 9 8 0 0 -8 14 -13 38 -12 20 0 30 3 22 6
-8 4 -20 13 -26 21 -7 10 -18 13 -30 8 -15 -6 -16 -5 -7 5 9 9 20 8 47 -5 20
-9 36 -22 36 -27 0 -7 35 -9 98 -7 83 3 97 5 97 20 0 9 4 20 9 25 5 4 7 -4 4
-20 -5 -26 -4 -27 42 -27 46 0 47 0 44 32 -2 18 -1 24 2 13 10 -33 25 -45 56
-45 24 0 29 3 24 18 -6 16 -5 16 8 0 12 -16 36 -18 244 -18 175 0 232 3 235
13 4 10 6 10 6 0 1 -10 151 -13 717 -13 743 0 744 0 744 39 0 14 79 23 114 13
40 -11 43 -28 9 -40 l-28 -10 27 -1 c14 -1 29 5 32 12 5 9 7 9 12 0 3 -8 26
-13 59 -13 l53 0 6 73 c4 40 10 78 14 84 5 8 45 12 107 13 172 2 155 8 151
-54 -2 -29 -1 -58 3 -63 8 -13 49 -23 53 -12 2 4 20 4 41 0 40 -10 77 -4 77
10 0 5 11 9 24 9 13 0 29 7 36 15 8 9 20 13 29 10 9 -4 34 -9 56 -12 22 -2 43
-11 48 -18 8 -15 87 -18 87 -4 0 5 -12 14 -26 19 -22 9 -24 13 -14 25 18 22
27 19 34 -11 7 -26 9 -27 64 -20 31 4 71 9 87 12 17 3 36 6 43 6 6 1 12 6 13
12 0 6 4 2 9 -9 7 -16 9 -17 9 -3 1 10 17 22 44 31 23 8 49 18 59 22 13 5 20
-7 38 -64 l22 -70 92 0 c51 0 99 5 107 10 11 7 11 9 -3 9 -10 0 -18 4 -18 9 0
5 -10 11 -22 13 -15 2 -24 11 -26 24 -2 17 3 22 28 26 40 6 75 -12 74 -40 0
-11 3 -19 8 -16 4 3 8 -4 8 -15 l0 -21 719 0 c677 0 720 1 724 18 4 15 5 15 6
0 1 -12 10 -16 29 -16 26 1 29 4 26 34 -1 21 3 35 12 38 8 3 14 1 14 -4 0 -5
7 -7 14 -4 13 5 13 2 3 -19 -6 -14 -15 -23 -19 -21 -5 3 -8 -2 -8 -10 0 -13
14 -16 79 -16 45 0 83 5 86 10 5 8 11 8 20 0 9 -8 14 -6 19 5 3 8 13 15 22 15
18 0 14 22 -6 28 -7 3 -10 1 -7 -4 3 -5 -11 -10 -31 -11 -33 -2 -35 -1 -13 8
18 7 22 12 13 21 -9 9 -16 7 -31 -6 -26 -24 -38 -3 -16 31 16 24 16 26 -5 47
-24 22 -24 20 -3 -30 4 -11 2 -15 -7 -12 -24 8 -29 43 -9 69 18 24 18 24 33 4
9 -11 16 -14 16 -7 0 10 4 10 20 0 17 -11 22 -10 30 2 12 19 16 13 23 -32 4
-30 2 -38 -9 -38 -8 0 -12 -4 -9 -10 3 -5 19 -7 35 -3 19 3 30 1 30 -6 0 -6 6
-11 14 -11 12 0 12 5 3 30 -16 41 7 66 46 51 33 -13 36 -41 5 -41 -17 0 -19
-3 -10 -12 9 -9 8 -16 -6 -32 -16 -18 -16 -19 1 -13 14 5 17 1 17 -22 0 -25 4
-28 30 -27 38 1 41 17 6 34 -26 13 -35 32 -16 32 6 0 10 9 10 20 0 11 8 23 18
26 9 3 27 11 40 17 20 9 21 12 7 27 -17 19 -11 32 11 23 17 -6 9 22 -13 48 -8
9 -11 24 -7 34 6 15 4 17 -10 12 -11 -4 -15 -3 -10 4 3 6 19 9 35 5 31 -6 37
2 17 22 -9 9 -8 12 5 12 11 0 17 9 18 23 1 14 4 9 8 -13 4 -19 3 -41 -2 -47
-7 -10 -2 -12 24 -7 19 4 39 7 44 8 6 0 14 6 18 11 5 6 6 2 3 -8 -3 -10 -6
-23 -6 -28 0 -6 -4 -7 -10 -4 -6 3 -7 -1 -4 -9 3 -9 1 -16 -5 -16 -6 0 -11 6
-11 13 0 9 -3 8 -9 -2 -5 -8 -10 -9 -12 -3 -2 6 -24 14 -49 18 -41 7 -44 6
-31 -9 7 -9 17 -15 21 -12 10 6 20 -19 20 -51 0 -31 18 -31 30 1 11 29 69 57
88 42 8 -6 17 -5 27 3 17 14 35 5 34 -18 0 -10 -3 -12 -6 -5 -7 18 -55 -33
-51 -55 3 -13 13 -17 46 -15 30 1 42 -2 39 -10 -4 -14 -77 -19 -77 -6 0 5 -4
9 -10 9 -5 0 -10 -18 -10 -40 0 -37 11 -52 24 -32 6 11 64 3 72 -9 8 -14 24
-10 24 6 0 8 11 25 24 36 20 17 23 26 16 45 -12 31 3 31 27 1 10 -13 26 -26
35 -29 9 -4 19 -17 21 -30 3 -13 4 -4 4 18 -1 43 -31 96 -40 72 -3 -8 -6 -5
-6 5 -2 41 -59 58 -95 28 -9 -8 -19 -11 -23 -7 -3 3 -1 6 6 6 8 0 5 11 -9 30
-12 17 -27 27 -35 24 -7 -3 -21 -1 -30 4 -16 8 -16 10 -1 15 9 4 16 2 16 -3 0
-6 5 -10 10 -10 6 0 10 14 10 30 0 30 13 40 25 20 4 -6 1 -18 -6 -26 -10 -12
-9 -13 5 -8 9 3 16 10 16 15 0 5 7 9 15 9 24 0 18 17 -14 39 -34 25 -45 26
-37 6 3 -9 0 -15 -9 -15 -18 0 -19 14 -5 41 7 13 7 19 0 19 -18 0 -10 25 14
42 20 14 25 15 29 4 3 -8 -1 -17 -9 -20 -8 -3 -14 -16 -13 -28 0 -13 3 -17 6
-10 4 9 17 6 51 -14 26 -15 52 -35 59 -43 11 -15 12 -14 13 0 0 9 7 22 15 29
19 15 65 22 65 9 0 -5 -7 -9 -16 -9 -13 0 -44 -22 -44 -32 0 -2 10 -4 22 -5
12 -1 31 -12 42 -24 l21 -21 -22 11 c-32 16 -41 13 -15 -5 12 -8 22 -21 22
-27 0 -8 -3 -7 -9 2 -5 8 -14 10 -21 6 -9 -5 -11 -4 -6 3 4 7 3 12 -3 12 -5 0
-11 -5 -13 -11 -3 -9 -10 -9 -26 0 -25 13 -28 5 -8 -22 12 -15 18 -16 35 -8
13 7 28 8 45 2 18 -8 28 -6 37 5 9 11 15 12 26 2 13 -10 15 -9 11 7 -2 13 -11
20 -26 19 -17 0 -21 3 -16 18 3 12 -1 27 -12 39 -15 17 -15 19 -1 19 9 0 18
-12 22 -28 6 -25 55 -74 55 -54 0 6 7 13 16 16 13 5 15 1 12 -19 -3 -14 -1
-25 3 -25 5 0 9 6 9 14 0 17 52 28 62 13 4 -6 5 -14 2 -18 -2 -4 2 -10 8 -12
7 -3 -4 -6 -24 -6 -41 -1 -49 -14 -20 -30 15 -9 15 -12 2 -21 -8 -5 -11 -10
-7 -10 5 0 23 15 40 33 20 21 32 28 35 19 2 -7 -4 -20 -14 -27 -15 -11 -16
-14 -4 -15 13 0 13 -1 0 -10 -13 -9 -13 -10 0 -11 10 0 8 -3 -5 -9 -18 -8 -17
-9 6 -9 30 -1 44 20 26 39 -9 10 -9 14 1 17 6 3 9 9 6 15 -3 5 0 9 7 7 28 -3
39 1 39 17 0 9 6 14 13 11 6 -2 11 -18 11 -35 -2 -24 2 -29 15 -24 9 3 18 9
21 13 3 4 16 -4 30 -18 23 -24 23 -25 3 -15 -28 16 -33 15 -33 -4 0 -8 -4 -13
-9 -9 -5 3 -12 1 -15 -4 -3 -5 1 -12 10 -15 22 -9 24 -8 24 9 0 13 4 14 20 5
11 -6 18 -15 15 -21 -4 -5 -2 -9 4 -9 6 0 8 -6 5 -14 -3 -8 -1 -17 5 -20 7 -5
10 3 8 21 -2 18 4 35 17 47 19 19 19 19 12 0 -5 -10 -11 -46 -15 -79 l-7 -60
62 0 c50 0 61 2 56 14 -4 10 -1 13 11 8 11 -4 17 -1 17 8 0 8 4 15 8 15 5 0 9
17 10 38 0 32 -1 34 -9 14 -8 -21 -10 -22 -36 -9 -16 8 -35 17 -43 21 -8 3 4
4 28 1 40 -5 42 -4 32 14 -5 11 -7 27 -4 35 4 11 1 16 -11 16 -9 0 -13 5 -10
10 3 6 -1 10 -9 10 -9 0 -16 -4 -16 -8 0 -5 -10 -13 -23 -19 -20 -9 -25 -7
-40 19 -12 21 -14 35 -7 46 8 15 9 14 10 -4 0 -12 7 -25 16 -28 14 -5 15 -4 4
9 -22 26 3 42 28 17 22 -22 70 -34 78 -20 3 5 12 7 20 4 8 -3 14 -2 14 3 0 13
-42 21 -69 14 -17 -4 -22 -3 -17 5 4 7 18 12 31 12 18 0 23 4 19 15 -4 9 0 15
10 15 9 0 16 -8 16 -20 0 -11 5 -20 11 -20 5 0 7 5 4 10 -3 6 1 13 9 16 9 3
14 10 11 14 -8 14 28 21 37 8 29 -42 30 -49 10 -55 -24 -6 -35 -68 -15 -85 7
-6 13 -19 13 -29 0 -19 13 -20 83 -3 15 3 27 2 27 -3 0 -5 -12 -14 -27 -20
-25 -10 -26 -11 -6 -12 12 -1 25 -6 29 -12 8 -13 35 53 38 91 1 19 7 25 24 24
33 -1 21 19 -16 28 -18 5 -32 13 -32 17 0 5 9 7 20 4 14 -4 20 0 20 10 0 9 5
19 11 23 8 4 9 -1 4 -16 -6 -19 -4 -22 10 -17 9 4 21 7 26 7 6 0 7 5 4 10 -3
6 -1 10 4 10 6 0 11 -4 11 -10 0 -5 8 -10 18 -10 9 0 24 -5 32 -11 12 -9 10
-10 -9 -6 -17 4 -25 1 -28 -14 -3 -10 -9 -16 -14 -13 -5 3 -9 1 -9 -4 0 -6 7
-12 15 -16 8 -3 15 -1 15 5 0 6 5 7 12 3 8 -5 9 -2 5 9 -3 10 -2 17 3 17 6 0
10 -5 10 -11 0 -5 4 -8 9 -4 5 3 13 0 17 -6 4 -6 -1 -16 -10 -21 -19 -11 -22
-30 -3 -22 7 2 21 -2 32 -10 19 -14 21 -12 35 21 l15 35 24 -19 c20 -16 22
-23 13 -39 -11 -18 -11 -17 -12 6 l-2 25 -9 -27 c-7 -17 -15 -25 -25 -21 -9 3
-14 -1 -14 -13 -1 -16 -3 -15 -14 5 -17 31 -26 10 -15 -36 4 -18 3 -33 -2 -33
-5 0 -9 5 -9 10 0 18 -18 10 -23 -10 -4 -15 -10 -18 -24 -13 -16 6 -16 5 -4
-11 11 -13 16 -14 22 -5 6 10 11 10 22 1 10 -9 89 -12 281 -12 l266 1 0 65 c0
41 -4 63 -10 59 -5 -3 -10 -2 -10 4 0 5 4 13 10 16 5 3 9 96 9 230 0 222 0
224 -22 228 -22 4 -22 4 1 6 22 1 22 3 22 125 0 97 -3 126 -15 136 -12 10 -16
9 -20 -2 -3 -8 -11 -15 -18 -15 -7 0 -19 -3 -27 -7 -25 -10 -39 7 -45 54 -3
25 -3 40 1 33 3 -7 11 -10 19 -7 10 4 12 0 8 -15 -5 -19 -1 -21 48 -19 54 1
54 1 12 7 -35 5 -40 8 -30 21 13 17 47 23 47 9 0 -5 5 -9 10 -9 6 0 10 14 10
30 0 27 -3 30 -31 30 -27 0 -30 2 -19 15 7 8 21 15 31 15 12 0 19 7 19 20 0
21 -9 24 -92 35 -26 3 -50 10 -53 16 -4 5 -10 7 -15 4 -5 -3 -42 1 -82 10 -40
8 -87 15 -105 15 -17 0 -35 4 -38 10 -11 17 64 11 190 -16 66 -14 137 -28 158
-31 l37 -6 0 61 c0 33 -4 64 -10 67 -5 3 -10 1 -10 -5 0 -6 -5 -8 -11 -4 -7 4
-7 9 -2 13 6 3 12 15 15 27 4 17 1 20 -18 16 -20 -4 -24 0 -23 19 0 13 3 18 6
12 7 -18 40 -16 47 2 4 10 -1 14 -16 12 -11 -1 -23 4 -26 12 -3 10 2 13 22 9
21 -4 24 -3 15 8 -7 9 -8 18 -2 26 13 17 15 98 2 98 -12 0 -28 41 -22 58 4 9
9 8 19 -5 11 -16 13 -9 12 47 0 37 -5 68 -12 72 -8 6 -8 8 2 8 9 0 12 67 12
301 0 269 -2 301 -16 295 -12 -4 -14 -1 -9 14 4 12 2 20 -5 20 -15 0 -41 26
-33 34 4 3 19 6 35 6 21 0 28 5 28 20 0 20 -5 21 -182 20 -101 -1 -189 -1
-196 -1 -8 1 -12 9 -10 19 2 12 16 19 53 23 l50 6 -57 1 c-102 3 -62 19 54 21
62 1 115 4 117 7 2 2 -42 4 -98 4 -64 0 -100 4 -96 10 3 5 74 9 171 8 90 0
167 2 171 6 3 3 -6 6 -20 6 -15 0 -27 4 -27 9 0 11 25 21 51 21 18 0 20 6 17
57 l-3 57 -90 19 c-49 10 -124 25 -165 33 -169 33 -220 46 -220 55 0 6 8 8 18
5 9 -3 35 -7 57 -11 29 -4 34 -3 20 4 -19 9 185 5 212 -4 7 -2 15 0 17 4 6 8
12 8 104 -4 l52 -8 0 87 c0 51 -4 85 -9 81 -5 -3 -12 5 -14 17 -4 23 -4 23 -6
-1 -1 -19 -5 -23 -26 -19 -14 3 -25 1 -25 -3 0 -5 6 -10 13 -10 28 -3 -72 -18
-122 -18 -41 -1 -52 2 -48 13 4 9 -8 17 -36 26 -77 22 -188 63 -183 67 2 2 62
11 132 19 74 9 135 21 144 29 8 7 26 15 40 18 23 4 23 4 3 6 -13 0 -23 5 -23
10 0 14 33 19 76 12 30 -5 40 -11 42 -29 2 -12 8 -20 13 -17 5 4 9 1 9 -4 0
-6 5 -11 10 -11 7 0 9 91 8 266 -3 239 -5 268 -20 278 -22 13 -28 6 -31 -33
-1 -22 -6 -30 -16 -26 -9 3 -11 0 -7 -10 3 -8 0 -15 -6 -15 -6 0 -2 -8 10 -18
20 -18 20 -18 1 -30 -10 -7 -28 -12 -38 -12 -27 0 -35 -17 -11 -23 11 -3 20
-11 20 -17 0 -7 -7 -10 -17 -6 -9 4 -20 1 -25 -6 -6 -10 -8 -8 -8 5 0 20 -20
23 -38 5 -9 -9 -12 -9 -12 0 0 6 -11 11 -25 10 -14 -1 -25 -7 -25 -13 0 -5 -4
-4 -9 3 -6 10 -10 9 -14 -7 -5 -21 -37 -30 -37 -11 0 6 3 9 8 9 19 -3 23 2 12
16 -9 10 -17 12 -30 5 -9 -5 -21 -6 -25 -2 -4 4 -4 -4 0 -18 10 -33 20 -38 85
-45 30 -4 66 -10 80 -14 14 -4 40 -4 58 -1 17 4 32 3 32 -1 0 -5 12 -6 26 -3
19 5 25 4 20 -5 -4 -6 -2 -11 3 -11 6 0 11 -7 11 -15 0 -8 -9 -15 -20 -15 -11
0 -20 -4 -20 -10 0 -5 5 -10 10 -10 17 0 11 -18 -7 -24 -43 -13 -84 -16 -78
-6 12 19 -7 10 -26 -12 -10 -13 -18 -18 -19 -11 0 6 5 15 10 18 17 10 11 32
-10 38 -14 4 -20 0 -20 -11 -1 -12 -5 -10 -14 8 l-14 25 -13 -28 c-9 -19 -17
-26 -28 -21 -9 3 -24 9 -34 11 -14 4 -17 12 -13 37 3 17 3 25 0 19 -3 -7 -12
-13 -20 -13 -17 0 -19 -17 -1 -23 6 -2 9 -8 5 -12 -4 -4 -14 -2 -22 5 -9 6
-21 10 -28 7 -7 -2 -22 0 -32 6 -11 5 -45 9 -75 9 -41 0 -49 2 -31 8 l25 7
-30 7 c-16 4 -36 9 -42 12 -7 2 -13 -1 -13 -7 0 -6 -9 -8 -22 -4 -35 11 -43
23 -11 18 l28 -5 -29 16 c-32 18 -82 23 -56 6 11 -8 8 -10 -14 -7 -17 2 -32 9
-34 15 -2 8 3 10 15 5 10 -3 15 -3 11 1 -3 4 -14 9 -23 10 -22 3 -47 72 -41
108 4 19 1 28 -11 30 -12 2 -18 15 -19 41 -2 21 1 35 7 32 5 -4 9 -13 9 -22 0
-9 3 -13 7 -10 3 4 13 1 21 -6 13 -10 14 -9 3 11 -10 20 -9 22 11 23 17 1 18
3 6 6 -10 2 -18 13 -18 24 0 10 -7 19 -15 19 -8 0 -15 5 -15 10 0 6 15 4 37
-5 20 -8 46 -12 57 -9 20 7 20 7 -2 15 -13 5 -21 13 -17 18 3 5 1 12 -4 16 -6
3 -8 12 -4 20 6 18 -13 20 -21 3 -3 -7 -4 -4 -3 7 2 14 9 19 22 17 11 -2 21
-8 23 -12 4 -11 32 -1 32 12 0 5 -4 7 -9 4 -8 -5 -39 23 -33 31 8 11 -1 21
-23 26 -17 3 -24 0 -22 -7 2 -6 12 -10 21 -10 16 2 16 1 0 -18 -18 -19 -18
-19 -26 4 -5 13 -16 29 -25 36 -15 11 -15 12 3 12 14 1 12 4 -11 16 -30 14
-29 14 23 10 50 -5 52 -4 52 21 0 17 -4 24 -14 20 -8 -3 -17 -3 -20 1 -8 7
-38 13 -84 15 -18 1 -37 8 -41 15 -5 8 -12 14 -16 15 -4 1 -9 20 -10 42 l-3
40 14 -30 c15 -34 19 -19 4 19 -15 40 15 22 46 -28 17 -27 23 -33 18 -16 -10
38 -29 72 -58 103 -14 15 -20 27 -14 27 6 0 31 -21 55 -47 24 -27 41 -39 37
-28 -9 25 -34 65 -52 84 -7 7 -11 15 -9 17 9 9 70 -17 87 -38 11 -13 19 -18
20 -11 0 11 -21 30 -70 63 -12 8 -32 23 -44 33 -20 18 -20 18 7 1 15 -9 30
-14 34 -10 3 3 13 0 22 -6 13 -10 14 -10 4 2 -20 22 -15 30 18 30 24 0 30 4
25 15 -3 9 1 18 9 21 21 9 19 25 -2 18 -15 -5 -16 -4 -3 5 19 13 50 14 70 1
11 -8 7 -9 -15 -4 -21 5 -27 3 -20 -4 12 -13 93 -18 118 -7 21 9 24 40 2 32
-8 -4 -17 -2 -20 3 -4 6 -1 10 4 10 6 0 11 9 11 20 0 11 5 20 11 20 6 0 9 -7
5 -15 -3 -8 -1 -15 4 -15 6 0 10 -7 10 -15 0 -8 6 -15 14 -15 8 0 16 -5 18
-11 3 -9 10 -9 26 0 14 8 22 8 22 1 0 -13 27 -13 36 1 3 6 1 22 -7 35 -7 13
-10 26 -8 29 8 8 49 -7 43 -16 -3 -5 0 -9 5 -9 6 0 11 5 11 11 0 5 5 7 12 3 8
-5 3 -15 -15 -30 -15 -13 -23 -25 -18 -29 5 -3 12 1 15 7 5 10 7 10 12 1 6
-15 31 -17 36 -5 2 5 20 7 40 4 21 -2 35 -8 32 -13 -3 -5 2 -9 11 -9 9 0 15
-7 13 -16 -3 -18 47 -30 57 -13 8 13 45 11 45 -2 0 -5 5 -7 10 -4 5 3 10 1 10
-4 0 -14 27 -14 32 -1 5 14 48 0 48 -16 0 -7 -5 -16 -10 -19 -28 -17 3 -63 66
-98 8 -5 12 40 13 158 1 152 0 165 -17 165 -10 0 -29 8 -42 17 -14 10 -33 16
-42 15 -10 -2 -18 1 -18 6 0 5 -11 8 -25 7 -27 -4 -44 13 -26 25 9 5 7 11 -5
21 -10 8 -15 9 -11 3 4 -7 -3 -14 -18 -16 -14 -3 -25 -2 -25 2 0 4 -10 6 -22
5 -13 -1 -28 2 -35 7 -8 7 -18 5 -28 -6 -15 -15 -14 -16 14 -16 29 0 41 -17
25 -33 -12 -11 -64 23 -64 42 0 14 -5 18 -20 14 -15 -4 -18 -9 -10 -18 8 -9 8
-15 0 -20 -5 -3 -13 1 -16 10 -6 13 -8 14 -15 3 -7 -10 -9 -10 -9 0 0 16 -27
16 -33 0 -4 -9 -14 -3 -32 16 -14 15 -27 27 -29 25 -1 -2 -10 -20 -19 -39 -13
-28 -17 -31 -17 -13 0 28 -14 37 -30 18 -7 -8 -26 -15 -42 -15 -16 0 -27 -4
-23 -10 3 -5 -61 -10 -169 -12 -194 -3 -186 -6 -186 65 l0 27 213 1 c116 0
227 2 244 4 18 2 35 -1 39 -6 3 -5 11 -6 17 -2 7 5 21 8 32 8 16 0 20 7 20 30
l0 30 -220 2 c-360 3 -325 0 -325 26 0 20 4 22 45 19 35 -3 45 -1 45 11 0 8
14 21 32 28 17 7 51 28 76 47 24 18 54 38 68 44 15 7 23 18 21 32 -2 19 3 21
62 22 58 2 67 -1 84 -23 11 -13 22 -22 24 -19 3 3 14 1 24 -5 20 -10 28 4 9
16 -20 12 -9 21 25 21 19 0 35 -4 35 -8 0 -4 -7 -8 -16 -8 -10 0 -14 -6 -10
-15 3 -8 -3 -19 -12 -25 -14 -8 -15 -11 -3 -19 7 -5 11 -13 8 -17 -3 -5 35
-10 85 -11 95 -3 101 0 127 50 16 30 31 36 31 12 0 -8 -6 -15 -14 -15 -19 0
-28 -52 -11 -69 12 -12 17 -12 29 -1 9 7 16 20 16 30 0 10 6 30 14 44 11 23
14 24 18 9 3 -10 4 -35 4 -55 -1 -21 3 -38 9 -38 5 0 -2 -8 -17 -18 -32 -19
-36 -32 -10 -33 11 -1 9 -4 -8 -9 -15 -5 -19 -8 -8 -9 9 -1 19 -10 23 -21 7
-21 76 -80 94 -80 6 0 11 -4 11 -10 0 -5 5 -10 12 -10 6 0 20 -7 30 -16 17
-16 18 1 18 530 l0 546 -270 0 c-173 0 -270 -4 -270 -10 0 -15 -57 -12 -64 3
-3 6 -2 -1 1 -18 6 -27 5 -29 -11 -16 -9 8 -15 20 -12 27 4 9 -37 12 -177 13
-119 0 -176 -3 -166 -9 11 -7 17 -24 17 -52 1 -38 -1 -41 -12 -25 -7 9 -21 17
-30 17 -10 0 -16 8 -16 22 0 22 -1 22 -17 4 -13 -13 -15 -20 -6 -23 7 -3 13
-12 13 -20 0 -12 3 -13 14 -4 11 9 15 7 20 -11 10 -39 7 -44 -26 -46 -22 -1
-28 1 -19 7 18 12 -3 53 -24 45 -9 -4 -15 0 -15 10 0 9 -6 16 -12 16 -7 0 -4
6 7 12 33 19 66 58 50 58 -8 0 -15 -4 -15 -10 0 -5 -7 -10 -16 -10 -8 0 -12 5
-9 10 4 6 -7 10 -27 9 -18 -1 -25 -3 -15 -6 9 -2 17 -11 17 -18 0 -9 -6 -12
-15 -9 -8 4 -15 1 -15 -6 0 -6 -7 -18 -15 -26 -8 -9 -15 -11 -15 -5 0 20 -18
11 -25 -11 -6 -20 -8 -20 -12 -5 -2 9 -9 17 -14 17 -6 0 -7 5 -3 12 4 7 3 8
-4 4 -7 -4 -12 -15 -12 -25 0 -18 -18 -41 -32 -41 -18 0 -7 48 11 53 15 3 19
13 19 36 l-1 32 -141 -3 c-78 -2 -150 -7 -161 -12 -16 -6 -17 -6 -5 3 12 9 1
11 -46 8 -33 -2 -66 -7 -72 -11 -7 -4 -12 -2 -12 4 0 7 -81 10 -260 9 -238 -1
-294 -6 -245 -25 8 -4 15 -12 15 -20 0 -15 26 -19 34 -5 3 4 18 6 32 3 l27 -5
-27 -14 c-14 -7 -26 -18 -26 -23 0 -16 29 -11 48 8 15 15 22 16 34 8 8 -6 13
-17 11 -24 -3 -7 1 -10 10 -6 15 5 57 -23 57 -38 0 -12 -48 -10 -71 2 -13 8
-19 7 -19 0 0 -6 -4 -8 -10 -5 -5 3 -10 -4 -10 -16 0 -18 3 -19 15 -9 11 9 18
8 36 -9 13 -12 31 -21 41 -21 10 0 18 -4 18 -10 0 -5 -6 -10 -14 -10 -16 0
-31 -18 -22 -27 3 -3 17 2 30 11 35 23 66 21 66 -4 0 -11 -7 -20 -15 -20 -8 0
-15 -4 -15 -10 0 -18 28 -10 47 13 18 22 51 25 64 6 10 -17 39 3 39 27 0 15 5
22 13 18 10 -3 13 5 12 30 0 19 2 33 6 30 4 -2 10 2 13 8 3 7 3 -5 0 -27 -4
-22 -13 -46 -22 -52 -9 -7 -11 -13 -5 -13 5 0 15 -10 20 -22 l11 -23 9 22 c6
16 12 20 23 13 12 -8 12 -10 -3 -16 -9 -3 -17 -12 -17 -19 0 -13 -29 -29 -37
-21 -2 2 -5 13 -6 25 -1 23 -12 27 -23 10 -3 -6 -1 -16 5 -22 16 -16 14 -32
-3 -18 -9 8 -16 8 -20 2 -4 -5 -2 -13 4 -16 17 -11 -9 -35 -39 -36 -22 -1 -22
-2 -5 -6 16 -3 20 -9 17 -24 -3 -10 -12 -19 -19 -19 -8 0 -14 -5 -14 -11 0 -5
5 -7 10 -4 6 3 10 1 10 -4 0 -6 5 -11 10 -11 6 0 10 6 9 13 -3 16 17 63 29 71
5 3 15 -1 22 -9 16 -19 30 -19 30 -1 0 9 7 12 20 9 11 -3 28 1 37 8 13 11 17
11 20 2 3 -7 9 -13 15 -13 6 0 8 6 5 13 -3 8 4 14 20 15 18 1 24 -2 20 -12 -7
-17 33 -30 47 -16 14 14 26 12 26 -4 0 -8 -10 -22 -22 -30 -30 -21 -15 -33 16
-13 35 23 43 -4 9 -31 -26 -21 -24 -46 2 -36 8 4 13 10 10 14 -3 4 2 10 10 14
8 3 15 12 15 19 0 8 7 14 15 14 8 0 15 -4 15 -9 0 -5 5 -6 11 -3 5 4 9 17 8
28 -3 43 1 54 26 65 38 17 42 15 49 -23 4 -20 11 -33 16 -30 5 3 6 13 3 21 -3
9 0 20 8 25 11 7 11 9 -3 9 -10 0 -18 7 -18 15 0 8 7 15 16 15 25 0 54 -19 54
-37 0 -12 3 -13 14 -4 11 9 20 9 35 2 14 -8 20 -8 23 1 5 14 38 3 38 -12 0 -6
-8 -10 -17 -9 -52 5 -83 -2 -83 -17 0 -9 -8 -22 -17 -29 -16 -12 -16 -14 -1
-29 9 -9 23 -16 30 -16 10 0 9 3 -2 10 -22 14 -6 22 22 11 27 -10 61 2 37 13
-8 3 4 4 25 1 22 -2 46 1 53 7 11 9 13 8 11 -3 -2 -9 4 -13 15 -11 9 2 17 -2
17 -8 0 -16 25 -12 48 10 30 28 58 26 66 -6 6 -24 8 -25 25 -10 22 20 31 20
31 2 0 -15 46 -11 56 5 7 13 64 11 64 -2 0 -5 -4 -8 -9 -5 -5 3 -21 0 -35 -8
l-27 -14 28 -5 c15 -3 31 0 35 6 5 8 13 8 31 0 16 -7 28 -8 34 -2 6 6 15 4 24
-7 11 -14 11 -18 -4 -29 -33 -24 -13 -54 23 -35 28 15 43 4 30 -21 -9 -15 -7
-19 7 -19 13 -1 11 -5 -9 -16 -16 -8 -28 -22 -28 -31 0 -9 -3 -13 -6 -10 -8 8
-44 -10 -44 -22 0 -5 18 -11 40 -15 22 -3 40 -11 40 -16 0 -14 -33 -12 -49 2
-8 8 -11 8 -8 2 4 -7 -3 -14 -17 -16 -15 -3 -23 -1 -21 6 16 52 14 61 -10 62
-26 2 -34 -11 -12 -19 9 -4 9 -6 -1 -6 -7 -1 -10 -6 -7 -11 3 -6 2 -10 -4 -10
-5 0 -13 9 -16 20 -4 11 -10 18 -15 15 -5 -3 -7 -12 -4 -19 8 -22 -10 -27 -62
-17 -31 6 -53 6 -60 0 -8 -6 -17 -5 -27 5 -11 11 -28 14 -61 11 -35 -4 -46 -1
-46 9 0 8 -15 16 -37 19 -21 3 -60 11 -88 17 -108 26 -131 31 -170 36 -22 3
-50 10 -62 16 -11 6 -37 9 -56 6 -27 -3 -34 -1 -29 11 4 11 0 13 -18 8 -13 -3
-48 1 -79 9 -63 17 -137 32 -196 40 -22 3 -42 9 -45 14 -3 4 -16 8 -30 8 -14
0 -54 7 -90 16 -36 9 -74 17 -85 19 -11 2 -28 7 -37 11 -9 4 -22 5 -28 1 -6
-4 -21 0 -34 8 -12 8 -44 17 -71 19 l-48 3 -18 55 c-9 30 -24 88 -32 128 -9
41 -17 76 -20 78 -2 2 -439 5 -970 7 -532 1 -967 4 -967 7 0 3 -56 5 -124 5
-68 0 -122 -3 -119 -7 2 -5 -6 -4 -19 0 -21 7 -42 8 -140 4 l-38 -2 -2 -352
-3 -353 -6 265 c-5 245 -6 235 -5 -120 1 -212 -1 -340 -5 -285 -3 55 -10 289
-14 520 -4 231 -9 422 -11 424 -14 15 -18 -39 -20 -272 -1 -144 1 -228 5 -187
3 41 6 -325 6 -815 0 -490 -2 -743 -5 -563 -3 179 -8 330 -12 334 -5 4 -9 -31
-9 -77 -1 -46 -4 -115 -8 -154 -6 -69 -16 238 -30 960 l-6 320 -9 -451 c-4
-248 -5 -500 -1 -560 4 -60 4 -106 1 -103 -10 9 -13 66 -14 277 l-2 182 -118
0 c-125 0 -142 6 -142 47 0 16 -7 24 -24 29 -42 10 -65 -4 -76 -47 -6 -22 -15
-37 -19 -35 -7 4 -1545 12 -2873 15 -278 1 -317 3 -312 16 7 18 -17 20 -34 3
-9 -9 -12 -9 -12 1 0 8 -8 10 -23 6 -20 -5 -20 -5 -5 8 19 15 8 44 -12 32 -12
-8 -30 10 -30 31 0 15 74 2 97 -17 15 -13 16 -12 10 9 -4 18 -2 22 9 18 8 -3
810 -8 1782 -12 971 -3 1770 -8 1774 -10 4 -3 8 13 8 34 l0 40 -792 3 c-436 2
-1009 3 -1273 4 -824 0 -1391 7 -1365 15 14 4 44 8 67 9 47 1 65 17 33 29 -20
7 -20 9 -6 21 11 9 16 10 16 2 0 -6 7 -11 15 -11 8 0 15 5 15 10 0 7 6 7 18 1
24 -13 465 -19 587 -7 l50 4 -45 -7 -45 -8 63 -1 c38 -1 61 2 57 8 -3 5 14 8
45 7 34 -1 52 -7 55 -17 4 -13 67 -15 497 -13 271 2 500 6 508 9 45 20 90 11
90 -19 0 -19 1 -20 13 -3 12 16 32 17 257 12 135 -3 444 -5 688 -5 414 -1 442
-2 442 -18 0 -15 2 -16 10 -3 5 8 9 80 9 160 -1 88 -4 135 -9 120 -4 -14 -8
100 -9 258 l-1 282 -37 2 c-21 0 -88 1 -148 2 -101 1 -113 3 -135 24 -14 13
-26 18 -28 12 -2 -5 -10 -10 -17 -10 -7 0 -15 -5 -17 -11 -4 -12 -228 -19
-228 -7 0 4 -12 3 -26 -2 -14 -6 -30 -7 -35 -4 -17 10 -109 10 -109 0 0 -16
-18 7 -23 29 -4 19 -5 19 -6 -2 l-1 -21 -232 2 c-217 3 -232 4 -239 22 -7 18
-8 18 -8 -1 -1 -17 -7 -20 -33 -19 -59 2 -203 6 -208 5 -22 -5 -328 -4 -336 2
-6 3 -160 5 -342 3 -183 -1 -332 1 -332 6 0 5 -8 5 -17 0 -10 -5 -31 -6 -48
-2 -16 3 -46 3 -65 -1 -19 -5 -37 -4 -40 1 -3 5 -22 5 -45 0 -22 -5 -42 -5
-45 -1 -3 5 -123 9 -267 10 -254 1 -263 0 -263 -19 0 -10 -4 -29 -9 -42 -5
-13 -19 -54 -31 -93 -36 -120 -39 -124 -90 -131 -25 -3 -80 -15 -123 -25 -43
-11 -82 -17 -87 -14 -5 3 -11 1 -15 -5 -3 -5 -19 -10 -35 -10 -16 0 -59 -7
-97 -16 -37 -9 -79 -18 -93 -20 -14 -3 -37 -9 -52 -15 -15 -6 -35 -8 -44 -5
-9 4 -22 2 -28 -3 -20 -17 -156 -18 -156 -1 0 5 6 7 14 4 15 -6 32 29 21 46
-4 6 1 7 10 4 10 -4 15 -14 12 -25 -4 -16 1 -19 39 -19 24 0 44 4 44 10 0 5
23 12 50 16 40 5 50 10 50 26 0 10 -5 16 -10 13 -6 -3 -10 -1 -10 5 0 7 -6 8
-19 1 -16 -9 -19 -6 -25 21 -3 18 -2 36 4 42 7 7 10 3 10 -10 0 -17 6 -20 37
-17 20 1 41 7 47 13 5 5 25 10 43 10 22 0 33 5 33 14 0 22 52 31 66 11 9 -12
17 -13 38 -5 14 5 26 15 26 21 0 8 -4 8 -14 0 -11 -9 -19 -9 -35 1 -12 7 -21
17 -21 22 0 5 -9 1 -20 -9 -15 -14 -23 -16 -32 -7 -17 17 -1 42 27 42 16 0 25
6 25 15 0 8 7 15 16 15 10 0 14 -5 10 -16 -3 -9 -2 -12 5 -9 6 4 8 13 5 21 -3
8 1 14 9 14 8 0 15 7 15 15 0 20 -9 19 -33 -2 -19 -18 -20 -17 -13 10 4 16 2
27 -4 27 -5 0 -10 -9 -10 -20 0 -17 -3 -19 -19 -11 -22 12 -34 -6 -25 -36 5
-16 4 -16 -6 0 -7 10 -9 29 -6 43 5 18 2 24 -10 24 -12 0 -15 -7 -12 -28 2
-16 -2 -34 -9 -41 -14 -12 -18 1 -15 42 1 13 -3 16 -22 11 -16 -4 -25 -1 -29
10 -5 12 1 13 31 9 34 -6 36 -5 23 10 -12 15 -11 17 13 17 16 0 26 6 26 14 0
8 9 18 20 21 11 3 20 9 20 13 0 4 30 8 67 10 37 2 74 7 82 12 14 8 13 9 -3 10
-15 0 -16 3 -7 14 10 12 -14 14 -171 14 -101 -1 -177 -3 -170 -5 6 -3 12 -8
12 -12 0 -10 -34 -10 -40 0 -3 4 -17 10 -32 14 -21 5 -27 3 -32 -13 -4 -11
-13 -26 -22 -33 -12 -10 -13 -9 -7 7 3 10 11 22 17 26 6 4 4 9 -7 14 -9 3 -24
1 -32 -6 -9 -7 -15 -8 -15 -2 0 5 -11 9 -24 8 -13 0 -22 -4 -19 -8 2 -5 -3 -8
-11 -8 -9 0 -16 4 -16 9 0 5 -8 8 -17 6 -10 -2 -22 -4 -28 -5 -5 0 -20 -17
-33 -38 -14 -22 -32 -38 -44 -39 -16 -2 -18 1 -9 10 13 13 15 47 2 47 -5 0
-12 -13 -16 -30 -4 -16 -11 -30 -16 -30 -5 0 -9 -8 -10 -17 0 -12 -2 -14 -6
-5 -3 8 3 34 12 58 18 47 12 71 -9 41 -7 -9 -19 -17 -25 -17 -9 0 -11 -9 -6
-29 6 -27 5 -28 -27 -24 -18 3 -46 5 -61 6 -20 0 -26 4 -22 14 3 8 5 18 5 23
0 5 7 16 16 24 14 15 11 16 -30 16 -25 0 -46 -4 -46 -10 0 -5 -9 -10 -21 -10
-11 0 -17 5 -14 10 7 11 -57 14 -68 3z m9062 -491 c14 -1 32 -9 41 -17 9 -8
26 -15 38 -15 13 0 22 -6 22 -16 0 -11 6 -13 19 -9 13 4 27 -1 40 -14 12 -12
24 -21 29 -21 4 0 13 -4 21 -9 11 -7 12 -13 4 -23 -9 -10 -5 -13 20 -12 18 0
44 -6 60 -13 29 -14 37 -43 12 -43 -9 0 -15 9 -15 21 0 18 -2 19 -15 9 -8 -7
-15 -9 -15 -4 0 5 -7 1 -14 -9 -8 -10 -23 -17 -33 -16 -25 4 -85 -11 -102 -25
-12 -9 -13 -6 -9 17 4 21 2 27 -8 23 -8 -3 -14 -1 -14 4 0 6 -4 10 -10 10 -5
0 -10 -12 -10 -27 -1 -25 -2 -26 -14 -11 -16 22 -112 34 -132 17 -11 -9 -14
-7 -14 14 0 14 4 28 10 32 5 3 7 12 3 20 -7 21 6 67 17 60 6 -3 10 -1 10 4 0
6 -4 11 -10 11 -5 0 -10 5 -10 11 0 16 42 51 49 42 3 -5 17 -9 30 -11z m-4052
-405 c75 -4 201 -7 280 -7 107 0 143 -3 143 -12 1 -7 7 -2 14 11 9 17 23 24
50 26 35 2 36 1 36 -32 l0 -33 -330 0 -330 0 0 -32 0 -33 467 2 c258 1 480 0
496 -3 25 -5 27 -10 27 -50 l0 -44 -496 0 -497 0 5 -357 c3 -211 2 -292 -2
-198 -7 162 -10 870 -3 804 l4 -36 136 -6z m1059 -93 c-3 -7 -8 -30 -12 -51
-6 -34 -5 -36 8 -19 11 14 19 16 34 9 10 -6 25 -8 32 -6 10 4 10 -2 -1 -29 -9
-21 -21 -34 -36 -36 -16 -3 -19 -7 -12 -16 8 -9 -5 -12 -54 -12 -52 0 -62 2
-53 13 8 10 7 13 -5 13 -21 0 -36 22 -42 61 -3 19 -3 29 1 22 3 -8 16 -10 34
-7 22 5 29 2 33 -12 3 -13 5 -11 6 8 0 15 -3 38 -9 53 -8 22 -7 27 13 34 27
10 70 -7 63 -25z m-2776 -445 c0 -125 0 -126 -25 -137 -14 -7 -32 -12 -40 -12
-8 0 -30 -9 -49 -21 -19 -11 -40 -18 -46 -14 -6 3 -22 -3 -37 -14 -14 -12 -28
-19 -31 -16 -7 6 -4 110 4 148 l6 27 -118 0 c-64 0 -114 3 -110 8 4 4 29 8 54
8 26 1 75 2 110 3 l62 1 0 63 c0 44 3 58 10 47 8 -12 10 -12 11 5 0 11 3 14 6
7 2 -6 10 -9 16 -5 20 12 51 9 64 -7 10 -13 12 -11 13 11 0 25 3 26 50 25 l50
-1 0 -126z m2212 109 c15 -3 29 0 31 6 10 25 27 -51 29 -127 1 -45 3 -64 5
-42 9 116 11 120 46 120 45 0 57 -11 57 -51 l0 -34 88 -2 87 -2 -87 -3 -88 -4
0 -80 c0 -79 0 -80 -22 -73 -13 3 -26 12 -31 20 -4 7 -20 12 -37 12 -16 -1
-41 7 -55 16 -15 10 -36 16 -46 13 -18 -5 -19 2 -19 126 0 73 4 127 8 121 4
-6 19 -13 34 -16z m-3311 -54 c3 -32 6 -45 7 -27 4 66 16 81 71 84 37 3 50 1
47 -8 -3 -7 -1 -15 4 -18 6 -4 10 -31 10 -61 l0 -54 120 0 120 0 0 54 c0 30 3
57 8 59 4 3 6 -21 4 -52 l-4 -58 121 1 121 1 0 52 c0 28 3 54 8 56 4 3 6 -79
4 -181 -3 -182 -6 -201 -36 -202 -5 0 -6 53 -2 123 l7 122 -99 3 -99 3 -6
-107 c-11 -169 -9 -244 6 -244 8 0 12 18 13 52 1 46 12 125 26 191 6 24 25 36
49 30 10 -3 19 0 19 6 0 12 49 16 51 4 1 -5 3 -17 6 -28 2 -11 6 -54 9 -95 6
-74 5 -76 -20 -88 -14 -6 -32 -9 -39 -6 -23 8 -40 -22 -33 -60 5 -27 16 -40
52 -61 36 -21 43 -29 34 -40 -6 -8 -17 -12 -23 -9 -7 2 -30 -5 -52 -16 -21
-11 -49 -20 -62 -20 -12 0 -24 -4 -27 -9 -3 -4 -27 -14 -53 -20 -27 -7 -56
-17 -66 -22 -10 -6 -41 -13 -68 -16 -27 -3 -49 -9 -49 -13 0 -5 -24 -13 -52
-20 -29 -6 -69 -19 -88 -27 -19 -9 -47 -16 -62 -15 -33 1 -48 -21 -48 -70 0
-18 -4 -28 -8 -21 -4 6 -23 11 -42 11 -19 0 -40 2 -47 4 -6 1 -19 -6 -27 -17
-11 -14 -14 -15 -10 -4 4 12 -2 18 -22 22 -20 3 -28 0 -31 -13 -3 -10 -12 -21
-20 -25 -13 -4 -14 -3 -4 9 15 17 -2 31 -26 22 -8 -4 -22 -1 -29 5 -11 9 -19
6 -39 -15 -26 -28 -46 -37 -25 -11 10 13 11 18 1 28 -9 9 -16 7 -32 -13 -11
-15 -17 -18 -13 -7 4 10 1 17 -7 18 -89 9 -96 7 -118 -22 -12 -16 -26 -29 -32
-29 -6 0 -1 8 11 18 13 11 20 24 16 30 -12 20 -36 13 -46 -13 -5 -14 -14 -25
-20 -25 -13 0 -13 13 1 27 8 8 -1 13 -36 18 -29 5 -50 4 -57 -3 -7 -7 -17 -8
-29 -2 -11 7 -20 7 -24 0 -3 -5 -15 -6 -29 0 -12 4 -28 5 -33 2 -6 -4 -50 -6
-97 -5 -76 2 -88 -1 -99 -18 -6 -10 -19 -19 -27 -19 -12 0 -12 2 -2 8 7 5 10
16 6 26 -6 16 -8 15 -29 -4 -20 -19 -23 -19 -29 -5 -7 19 -52 16 -48 -3 2 -10
-2 -10 -17 0 -17 10 -24 9 -42 -7 -12 -11 -19 -15 -16 -9 9 15 -16 25 -33 14
-8 -5 -21 -5 -29 0 -9 4 -20 8 -26 9 -5 0 -11 9 -13 21 -4 23 -22 27 -22 5 0
-17 -48 -64 -65 -65 -5 0 -3 5 5 10 12 7 12 12 3 21 -9 9 -16 9 -28 -1 -12
-10 -18 -10 -31 1 -14 11 -18 10 -30 -6 -13 -17 -14 -13 -13 36 2 86 18 123
40 88 4 -7 5 6 2 29 -5 34 -3 42 10 42 11 0 14 5 10 16 -5 14 -1 15 28 10 25
-5 30 -4 19 3 -8 6 -12 11 -7 12 4 1 12 3 17 4 6 1 15 3 21 4 8 1 8 5 1 14 -9
10 -3 13 27 11 21 -1 47 -5 58 -8 14 -4 23 -1 27 9 3 8 14 15 25 15 11 0 23 9
26 21 5 16 13 20 31 16 28 -5 47 13 38 37 -6 16 13 21 76 18 22 -1 22 0 6 7
-19 7 -18 8 5 14 17 5 29 1 41 -13 14 -18 29 -20 132 -20 l116 0 0 45 0 46
-95 -2 c-97 -2 -128 5 -81 17 19 4 26 13 26 30 0 17 -4 22 -15 18 -9 -4 -15
-1 -15 7 0 9 14 15 37 17 21 1 42 7 47 12 6 6 18 10 27 10 12 0 19 10 22 28 2
15 3 5 2 -21 -1 -30 1 -43 6 -35 5 7 9 27 10 43 l1 30 8 -30 c4 -16 5 -49 2
-72 -3 -25 -1 -43 5 -43 10 0 14 31 29 203 l7 77 -114 2 -114 2 112 3 c126 4
118 -1 126 88 3 27 4 20 5 -22 l2 -63 120 0 120 0 1 48 c1 26 5 58 10 72 6 16
7 0 3 -48 l-5 -74 115 4 c64 1 116 0 116 -4 0 -5 -52 -8 -115 -8 l-115 0 0
-48 c0 -27 -3 -90 -6 -140 -6 -79 -5 -92 8 -92 15 0 28 39 28 84 0 50 22 74
80 86 91 19 104 14 111 -45 6 -48 6 -49 7 -10 1 22 7 100 14 173 l11 132 66 1
c36 1 80 5 96 9 61 15 69 9 76 -56z m-995 -76 c-8 -175 -17 -267 -25 -266 -23
2 -41 -4 -41 -15 0 -7 -17 -20 -37 -29 -32 -13 -39 -14 -41 -2 -5 20 -22 17
-22 -3 -1 -17 -1 -17 -14 -1 -8 11 -16 14 -23 7 -5 -5 -23 -9 -39 -9 -72 1
-93 3 -92 9 2 20 -4 29 -22 34 -11 3 -20 1 -20 -5 0 -6 -7 -7 -15 -4 -10 4
-19 -2 -25 -17 -9 -24 -13 -16 -11 23 2 25 1 26 -61 24 -35 0 -53 1 -40 3 12
3 22 11 22 20 0 13 -3 13 -15 3 -13 -11 -15 -7 -14 26 0 22 3 33 6 27 6 -17
21 -16 39 1 14 15 54 11 54 -5 0 -18 18 -8 24 13 4 18 8 20 18 10 19 -19 33
-14 16 6 -8 9 -15 24 -16 32 0 8 -3 29 -6 47 -3 17 -2 34 3 38 5 3 49 7 98 9
48 3 99 8 112 12 l23 7 -3 -87 c-2 -47 0 -85 4 -83 5 1 9 38 9 82 1 83 10 115
31 115 7 0 22 7 33 15 16 13 16 14 2 9 -11 -4 -18 -1 -18 6 0 9 -3 10 -13 1
-19 -15 -26 -4 -18 27 5 18 15 28 30 30 16 3 21 0 16 -8 -6 -9 -2 -9 14 -1 12
7 26 9 31 6 6 -3 10 -1 10 6 0 24 13 -1 20 -38 l8 -38 1 48 c0 26 4 47 7 47 4
0 4 -60 0 -132z m4959 -200 c7 -154 10 -178 24 -178 9 0 57 -2 106 -3 l90 -2
-3 215 c-2 118 0 210 5 205 10 -14 112 -13 121 0 4 6 25 11 46 10 31 0 41 -5
49 -22 10 -23 27 -31 27 -13 0 13 53 13 83 -1 23 -10 24 -16 35 -196 7 -101
14 -189 17 -194 4 -5 53 -9 110 -9 l104 0 -6 187 c-4 126 -3 184 4 180 11 -7
19 -74 29 -237 4 -58 8 -106 9 -108 4 -4 187 -4 190 0 1 2 -2 44 -6 93 -13
155 -11 242 5 242 10 0 15 -25 20 -96 15 -209 18 -256 20 -258 1 -1 43 -3 94
-4 51 -1 92 -5 92 -9 0 -4 -9 -19 -20 -33 -15 -18 -17 -28 -9 -33 7 -4 10 -3
7 2 -7 11 17 35 26 27 3 -3 -8 -24 -24 -46 -16 -22 -28 -42 -26 -44 6 -6 86
75 86 87 0 5 4 10 9 10 5 0 4 -13 -2 -29 -7 -20 -16 -27 -26 -23 -9 3 -13 2
-10 -2 4 -4 -4 -18 -18 -32 -31 -31 -24 -42 11 -19 30 20 36 3 10 -26 -14 -16
-15 -23 -4 -48 12 -31 6 -71 -12 -71 -6 0 -5 -7 3 -17 12 -15 12 -16 -3 -10
-10 4 -18 2 -18 -5 0 -7 -4 -7 -12 0 -14 11 -417 10 -436 -2 -6 -3 -13 -2 -16
3 -3 4 -25 7 -48 5 -24 -2 -67 -4 -95 -5 -29 0 -53 -5 -53 -10 0 -5 -12 -3
-27 4 -19 9 -27 9 -30 0 -2 -6 -13 -9 -24 -6 -10 3 -25 0 -33 -6 -12 -10 -14
-4 -13 36 l2 47 -48 7 c-27 4 -57 15 -67 24 -10 9 -24 15 -32 14 -17 -4 -59
10 -78 26 -8 7 -30 13 -49 13 -18 0 -40 7 -50 14 -9 8 -38 20 -66 27 -27 6
-51 16 -53 22 -2 5 -21 9 -42 9 -26 0 -46 7 -57 19 -10 10 -27 20 -37 22 -14
3 -6 11 33 32 l52 29 -3 183 c-2 101 0 181 5 178 4 -2 8 26 8 64 l2 68 7 -65
c5 -36 11 -145 15 -242z m-3222 126 c9 -4 17 -10 17 -15 0 -5 9 -9 20 -9 11 0
25 -9 32 -20 7 -11 18 -20 25 -20 7 0 13 -9 13 -19 0 -11 3 -26 6 -34 4 -12 0
-14 -14 -10 -11 2 -31 -2 -44 -11 -13 -9 -38 -17 -54 -18 -16 -1 -39 -11 -52
-22 -18 -16 -25 -17 -35 -7 -9 9 -9 14 2 20 10 6 12 20 8 45 -3 20 -2 36 4 36
5 0 9 5 9 11 0 5 -4 8 -8 5 -5 -3 -6 9 -4 27 4 34 29 61 47 52 5 -3 18 -8 28
-11z m4825 -61 c-2 -4 -17 -29 -33 -55 -28 -45 -32 -48 -75 -49 l-45 -1 35 -8
c19 -5 36 -13 38 -19 2 -6 9 -11 17 -11 7 0 19 -8 26 -17 11 -15 11 -16 0 -6
-7 6 -20 9 -27 6 -8 -3 -14 0 -14 6 0 6 -12 11 -26 11 -14 0 -34 5 -44 10 -13
7 -21 7 -25 0 -4 -6 -15 -8 -26 -5 -30 10 -22 -12 9 -24 24 -9 21 -10 -24 -9
l-52 1 9 31 c5 17 9 32 9 33 0 2 8 3 18 3 13 0 14 2 4 9 -10 6 -10 10 3 21 13
11 15 8 16 -21 l2 -34 4 30 c6 38 28 63 74 84 37 17 133 28 127 14z m-1400
-140 c-2 -24 1 -43 7 -44 5 -1 -1 -5 -15 -9 -21 -7 -22 -8 -5 -10 l20 -1 -20
-9 c-25 -11 -122 -11 -155 0 l-25 8 25 1 c15 1 20 4 13 9 -8 5 -9 23 -3 62 9
55 9 55 7 8 -1 -25 1 -44 6 -41 4 2 7 15 7 28 0 19 7 25 34 30 18 4 42 6 52 5
39 -4 44 -1 39 28 l-5 27 10 -25 c6 -14 10 -44 8 -67z m2264 -15 c4 1 13 -8
19 -19 8 -15 13 -18 19 -10 9 16 80 -64 80 -90 0 -10 5 -21 10 -24 6 -4 8 -11
4 -16 -3 -6 -8 -29 -10 -52 -3 -23 -7 -48 -9 -55 -3 -7 -1 -34 3 -60 l7 -47 6
45 c6 43 6 43 7 9 1 -20 9 -42 17 -49 12 -10 13 -7 4 22 -8 29 -10 98 -2 98 5
0 33 -72 33 -84 -1 -6 -7 3 -15 19 -9 20 -14 24 -14 12 -1 -10 7 -32 16 -50
l17 -32 7 30 7 30 2 -30 c1 -16 3 -38 5 -47 2 -13 -3 -18 -21 -18 -16 0 -24 6
-25 18 -1 16 -2 16 -6 0 -2 -10 -11 -18 -18 -18 -8 0 -19 8 -25 18 -11 16 -11
16 -6 0 3 -10 1 -20 -4 -23 -6 -4 -10 4 -10 17 0 17 -3 19 -9 9 -5 -7 -13 -11
-19 -7 -6 3 -13 2 -16 -3 -4 -5 -45 -8 -93 -6 -85 4 -109 14 -98 42 2 7 -6 15
-18 19 -12 4 -25 11 -28 16 -4 6 -15 6 -28 -2 -17 -9 -20 -14 -11 -25 15 -18
-4 -29 -27 -16 -17 10 -17 10 0 11 9 0 16 3 16 8 -5 27 2 41 19 35 30 -10 1
13 -63 52 l-60 36 45 -7 c25 -4 55 -11 68 -15 34 -13 39 -11 17 5 -11 7 -36
17 -55 22 l-35 8 35 6 35 6 -30 9 c-16 4 -43 19 -58 32 -16 12 -42 23 -58 23
-35 0 -38 13 -6 28 12 6 16 11 10 11 -8 1 -13 15 -13 37 0 21 4 33 10 29 6 -4
8 -11 4 -16 -7 -13 15 -41 27 -33 5 3 9 -1 9 -10 0 -8 -6 -17 -12 -19 -8 -3
-5 -6 5 -6 16 -1 18 4 12 39 -7 44 -2 48 41 25 l29 -15 -27 0 c-16 0 -28 5
-28 12 0 6 -3 9 -6 5 -7 -6 10 -39 19 -38 4 1 38 1 77 1 l70 0 25 -49 c30 -60
53 -78 29 -24 -28 65 -28 73 -6 73 17 0 21 7 24 38 l3 37 44 -57 c24 -32 50
-58 58 -58 8 0 12 -4 9 -9 -3 -4 1 -28 9 -52 l14 -44 -5 40 c-4 30 -3 36 5 25
8 -11 9 -6 4 20 -3 19 -22 54 -42 76 -20 23 -44 56 -55 74 l-18 32 23 -13 c13
-7 27 -12 31 -11z m-702 -104 c0 -3 -5 -15 -11 -27 -11 -21 -11 -21 14 2 l26
23 4 -33 4 -34 1 38 c2 26 7 37 18 37 8 0 12 -5 9 -10 -4 -6 -2 -16 3 -23 5
-7 12 -34 16 -62 3 -27 7 -59 8 -69 2 -10 -3 -21 -11 -24 -9 -3 -11 0 -6 8 5
8 4 11 -3 6 -6 -4 -8 -14 -5 -24 6 -15 5 -15 -10 -3 -15 12 -17 11 -18 -10 -1
-13 -1 -27 0 -32 1 -4 -15 -15 -34 -24 -19 -9 -35 -23 -35 -30 0 -7 -3 -13 -7
-14 -5 0 -52 -2 -105 -3 l-98 -3 0 33 c0 18 11 54 25 80 14 25 22 51 18 57 -3
6 -1 7 5 3 7 -4 12 -2 12 5 0 7 3 10 6 6 3 -3 1 -22 -6 -42 -7 -20 -10 -39 -7
-42 3 -3 18 34 32 81 25 81 45 116 66 116 12 0 11 -10 -6 -40 -24 -42 -16 -47
12 -7 23 33 28 36 34 20 4 -10 5 -21 2 -25 -2 -5 1 -8 6 -8 6 0 11 18 11 40 0
29 4 40 15 40 8 0 15 -3 15 -6z m-5066 -726 c-3 -5 2 -8 10 -8 9 0 13 6 10 14
-4 10 4 13 31 12 24 -1 34 -5 30 -13 -2 -7 0 -13 5 -13 6 0 10 7 10 15 0 8 5
15 11 15 5 0 7 -5 3 -12 -5 -7 -3 -8 6 -3 21 13 100 11 100 -2 0 -7 5 -13 10
-13 6 0 10 -7 10 -16 0 -8 5 -12 10 -9 6 3 10 -1 10 -9 0 -8 4 -17 9 -20 5 -4
7 3 4 14 -5 20 -5 20 26 3 31 -18 40 -33 21 -33 -5 0 -10 6 -11 13 -1 18 -28
-45 -29 -67 0 -14 5 -17 23 -13 l22 6 -24 -20 c-20 -16 -48 -24 -73 -20 -5 0
-8 -4 -8 -10 0 -6 -6 -9 -14 -6 -8 3 -17 -1 -20 -9 -7 -17 4 -18 41 -2 32 13
53 18 53 13 0 -19 -23 -55 -34 -55 -8 0 -16 -5 -18 -11 -2 -6 -13 -3 -28 8
-14 11 -38 20 -54 21 l-30 2 22 -20 c11 -11 28 -20 36 -20 10 0 13 -6 10 -15
-4 -8 -1 -15 5 -15 6 0 11 5 11 10 0 6 4 10 9 10 5 0 8 -7 7 -15 -3 -22 -51
-46 -64 -33 -6 6 -20 7 -33 2 -21 -7 -18 -9 26 -20 50 -12 121 -8 141 7 6 5
20 2 33 -7 17 -12 25 -13 36 -4 8 6 18 9 23 6 4 -3 15 4 22 15 15 20 50 26 50
8 0 -5 5 -7 10 -4 15 9 30 -4 23 -20 -3 -9 -19 -15 -40 -15 -30 0 -35 -3 -30
-20 3 -10 1 -20 -4 -22 -4 -2 -4 -9 1 -17 7 -12 11 -12 24 -2 10 9 20 10 34 2
11 -6 22 -7 26 -4 3 3 6 1 6 -5 0 -7 -11 -12 -25 -12 -20 0 -25 -5 -25 -25 0
-14 -5 -25 -10 -25 -6 0 -16 11 -22 25 -13 30 -33 34 -25 5 6 -24 3 -25 -17
-5 -12 12 -17 13 -28 2 -7 -7 -30 -12 -50 -12 -21 1 -38 -2 -38 -6 0 -4 -11
-6 -25 -5 -30 1 -31 6 -6 28 10 8 21 22 23 29 4 11 9 12 26 2 18 -11 20 -10
16 2 -4 8 -1 15 5 15 6 0 11 -6 11 -14 0 -7 9 -16 21 -19 15 -4 19 -2 15 9 -4
9 3 18 16 23 20 7 19 9 -11 19 -18 7 -37 9 -42 6 -5 -3 -9 -1 -9 5 0 6 -7 8
-16 4 -9 -3 -20 0 -25 8 -6 10 -9 10 -9 2 0 -7 -6 -13 -14 -13 -16 0 -30 -43
-16 -48 6 -2 10 -8 10 -14 0 -6 -6 -8 -14 -5 -17 7 -29 -19 -21 -44 5 -14 2
-17 -9 -13 -11 4 -14 -1 -12 -20 3 -23 0 -26 -28 -25 -25 0 -27 2 -11 8 18 7
17 8 -7 13 -20 4 -28 1 -31 -11 -2 -9 -4 2 -4 24 0 22 2 34 4 28 5 -14 43 -18
43 -5 0 5 -6 9 -12 9 -7 0 -21 4 -30 8 -11 4 -18 3 -18 -4 0 -6 -7 -11 -15
-11 -8 0 -12 -6 -9 -13 8 -22 -18 -36 -61 -32 -55 4 -55 4 -55 13 0 4 21 7 46
7 40 0 48 3 55 23 5 13 6 29 2 35 -4 6 0 8 9 4 9 -3 24 1 35 9 17 14 16 15
-12 9 -16 -3 -38 -8 -47 -11 -21 -6 -25 25 -7 43 8 8 0 13 -29 18 -24 4 -43
13 -47 23 -5 13 -10 10 -22 -17 -14 -28 -18 -31 -23 -16 -6 18 -7 18 -13 1 -4
-10 -2 -25 5 -34 11 -13 9 -14 -14 -9 -15 4 -30 3 -33 -3 -4 -6 7 -10 25 -10
17 0 29 -4 25 -9 -3 -5 5 -17 17 -25 14 -10 17 -16 8 -16 -11 0 -11 -3 -2 -12
15 -15 16 -32 1 -23 -5 4 -15 19 -20 33 l-11 27 -18 -22 c-10 -13 -23 -23 -29
-23 -6 0 -11 -7 -11 -16 0 -8 -5 -12 -11 -8 -6 3 -15 0 -20 -7 -6 -10 -9 -7
-9 11 0 35 -15 57 -26 39 -4 -7 -3 -14 4 -17 7 -2 10 -8 6 -13 -11 -19 -22 -7
-28 33 -5 32 -9 39 -16 28 -8 -13 -10 -13 -10 1 0 9 7 22 15 29 29 24 18 42
-22 38 l-38 -4 -3 -114 c-3 -124 -6 -145 -22 -135 -5 3 -10 1 -10 -6 0 -7 -3
-10 -6 -7 -3 4 0 16 6 28 9 18 9 21 0 15 -10 -6 -11 18 -5 114 l7 121 -120 0
-120 0 -7 -64 c-3 -35 -6 -104 -6 -153 0 -48 -2 -112 -5 -140 -7 -62 2 -66 56
-29 l35 23 1 -43 c0 -24 -3 -44 -7 -44 -5 0 -6 6 -3 14 3 8 0 17 -7 22 -7 4
-10 3 -5 -4 3 -6 2 -13 -4 -17 -5 -3 -10 0 -10 7 0 9 -2 10 -8 1 -4 -6 -20
-15 -35 -18 -25 -7 -27 -5 -28 26 -1 28 -3 29 -6 9 -5 -24 -5 -24 -24 10 -10
19 -18 30 -19 23 0 -8 -7 -10 -17 -6 -16 6 -16 5 -5 -10 8 -9 10 -22 6 -28 -5
-8 -2 -10 8 -6 17 6 48 -21 48 -41 0 -7 7 -12 15 -12 14 0 13 -3 -2 -25 -10
-13 -28 -25 -41 -25 -36 0 -52 -24 -52 -74 l0 -46 -82 0 c-46 -1 -114 -3 -152
-6 l-69 -5 6 28 c5 26 4 26 -9 8 -8 -10 -14 -22 -14 -27 0 -4 -4 -8 -10 -8 -5
0 -7 7 -4 15 4 10 0 15 -10 15 -9 0 -19 7 -22 15 -7 17 -34 21 -34 5 0 -5 5
-10 10 -10 6 0 10 -5 10 -10 0 -7 -6 -7 -19 0 -24 12 -31 13 -31 1 0 -5 10
-12 23 -16 21 -6 21 -7 -8 -15 -46 -14 -49 -7 -44 116 1 23 -3 49 -8 59 -8 13
-9 3 -5 -36 l5 -54 -23 25 -23 25 7 -27 c8 -35 -3 -88 -20 -88 -7 0 -18 -8
-24 -17 -10 -16 -10 -16 -6 2 3 11 1 27 -4 35 -8 12 -10 9 -10 -13 0 -16 -4
-26 -10 -22 -13 8 -13 75 -1 75 5 0 12 10 14 23 3 15 5 12 6 -11 0 -20 5 -31
11 -27 12 7 3 176 -8 185 -11 8 -15 32 -13 69 1 26 -1 32 -14 28 -8 -4 -15 -3
-15 1 0 4 -12 8 -28 8 -15 1 -21 -1 -14 -3 6 -3 12 -10 12 -18 0 -7 8 -12 18
-11 20 1 24 -9 16 -49 -3 -17 0 -43 6 -59 7 -20 8 -32 0 -40 -5 -5 -10 -28
-10 -50 l0 -41 -15 28 c-8 15 -12 34 -9 41 3 8 0 17 -5 21 -6 3 -9 9 -7 13 2
4 -11 18 -30 32 -18 14 -34 30 -34 36 0 13 -28 27 -39 19 -4 -2 -8 9 -8 25 0
18 4 27 11 22 6 -3 20 -5 30 -3 14 2 17 -2 13 -13 -4 -9 -2 -16 3 -16 6 0 10
7 10 15 0 8 5 15 10 15 6 0 10 7 10 16 0 13 -3 14 -15 4 -8 -6 -22 -10 -32 -8
-15 3 -18 14 -18 68 -1 36 1 57 3 48 4 -19 22 -25 22 -8 0 6 7 10 15 10 8 0
16 8 16 18 1 16 2 16 6 0 8 -31 41 -21 52 15 5 17 10 25 10 17 1 -8 -3 -31 -9
-50 -8 -31 -8 -33 5 -16 7 10 18 15 24 12 13 -8 18 17 25 112 l5 72 -103 0
-103 0 -7 -102 c-11 -174 -18 -228 -28 -222 -18 11 10 -30 51 -76 23 -25 41
-53 41 -63 0 -10 11 -33 24 -50 13 -18 27 -42 31 -55 5 -17 12 -21 26 -17 17
6 19 3 15 -21 -7 -35 -26 -56 -26 -28 -1 18 -1 18 -11 2 -16 -28 -42 -20 -70
21 -19 27 -25 47 -22 67 3 20 2 25 -5 16 -11 -16 -21 26 -23 92 -1 40 -1 40
-10 11 -5 -16 -10 -41 -11 -55 -2 -36 -7 -41 -27 -30 -10 5 -29 39 -42 75 -23
65 -43 94 -56 81 -4 -3 1 -22 10 -42 10 -19 15 -39 12 -44 -3 -5 -1 -11 5 -15
24 -15 9 -31 -25 -27 -19 2 -35 8 -35 13 0 5 -7 9 -15 9 -18 0 -19 12 -4 27 8
8 6 18 -7 38 -18 27 -18 27 -28 6 -5 -11 -13 -21 -18 -21 -5 0 -5 -8 0 -17 5
-10 7 -24 5 -30 -5 -15 -58 -16 -88 -3 -17 7 -15 9 12 9 24 1 31 5 27 15 -3 8
-11 13 -17 11 -10 -4 -105 -12 -160 -14 -11 -1 -15 -5 -11 -13 5 -8 -2 -9 -24
-5 -17 4 -34 3 -36 -2 -3 -5 -19 -11 -36 -14 -19 -4 -30 -13 -31 -24 0 -11 -3
-13 -6 -5 -2 6 -8 10 -13 7 -4 -3 -31 0 -60 5 -61 12 -83 4 -45 -16 33 -17 52
-18 57 -2 3 7 10 8 17 4 21 -13 -7 -26 -56 -26 -23 0 -45 -4 -48 -10 -4 -6 12
-8 42 -4 43 5 46 4 31 -9 -10 -8 -18 -18 -19 -23 0 -5 -16 -22 -35 -37 -26
-22 -34 -25 -34 -13 0 9 -7 16 -17 16 -15 0 -16 16 -10 167 4 91 8 221 8 287
1 67 3 113 6 104 2 -10 9 -18 14 -18 5 0 9 -7 9 -16 0 -8 4 -13 9 -10 5 4 13
-8 16 -26 l7 -32 14 30 c8 16 12 22 10 13 -10 -37 -16 -133 -7 -114 5 12 12
61 16 110 3 50 9 98 11 108 5 15 -2 17 -50 17 -31 0 -56 5 -56 10 0 6 25 10
55 10 51 0 55 2 55 24 0 12 3 51 6 85 l7 61 -60 0 -60 0 -6 117 c-4 65 -3 121
1 125 4 4 8 -9 9 -27 3 -53 6 -65 15 -59 4 3 12 -5 17 -18 7 -16 10 -18 10 -6
1 9 -3 20 -9 23 -5 3 -10 14 -10 23 1 12 6 8 16 -10 12 -23 21 -28 54 -28 39
0 53 13 28 24 -7 3 1 2 17 -1 17 -3 33 -11 37 -17 5 -8 13 -7 28 2 11 6 32 12
48 12 15 0 33 5 39 11 8 8 21 7 47 -2 28 -10 36 -18 36 -38 0 -24 0 -24 21 -5
17 15 33 18 80 16 32 -2 59 0 59 5 0 10 366 10 523 -2 86 -6 117 -5 117 3 0 7
16 12 40 12 22 0 40 -4 40 -9 0 -6 38 -8 93 -5 50 3 115 6 143 8 l52 2 8 -115
c4 -64 9 -109 10 -101 2 8 6 36 9 62 l6 47 52 4 52 3 -57 2 c-51 2 -58 4 -58
22 0 34 40 42 136 26 84 -13 119 -26 73 -26 -13 0 -31 -5 -39 -10 -11 -7 -4
-10 27 -10 53 0 73 8 73 29 0 12 2 13 9 3 6 -10 19 -11 46 -6 34 6 37 5 31
-11 -5 -13 -2 -16 10 -11 11 4 18 -1 21 -15 4 -14 12 -19 24 -16 11 3 22 1 25
-4 3 -5 -11 -9 -30 -9 l-36 0 0 -87 0 -88 54 3 c51 4 55 6 61 33 4 16 11 29
16 29 6 0 7 5 4 10 -3 6 -2 10 3 10 6 0 13 12 17 27 3 15 15 33 26 41 10 7 19
19 19 25 0 15 58 78 85 93 20 11 34 58 36 124 1 34 1 34 14 10 7 -14 11 -28 9
-32z m2922 24 c11 -14 15 -15 23 -3 5 8 14 10 22 6 7 -5 30 -9 52 -9 31 -1 41
3 47 19 7 17 9 15 13 -15 3 -19 9 -76 12 -126 6 -100 9 -121 26 -171 6 -19 8
-37 5 -40 -3 -4 -6 -1 -6 5 0 7 -15 12 -35 12 -21 0 -35 5 -35 13 0 6 -5 4
-11 -6 -6 -9 -14 -15 -18 -13 -4 3 -8 -8 -8 -24 0 -29 2 -30 44 -30 24 0 43 5
43 10 0 6 7 10 15 10 23 0 6 -30 -19 -31 -17 -1 -17 -2 -3 -6 9 -2 15 -9 12
-14 -4 -5 -1 -9 5 -9 7 0 9 -8 5 -20 -4 -13 -2 -20 5 -18 22 5 22 -19 0 -25
-11 -3 -20 -1 -20 4 0 17 -40 48 -55 43 -8 -4 -15 -10 -15 -15 0 -4 7 -6 15
-3 11 5 15 -1 15 -20 0 -14 -4 -27 -10 -27 -50 -6 -80 -9 -110 -10 -19 -1 -27
-3 -18 -6 14 -4 15 -8 5 -24 -12 -19 -47 -27 -47 -10 0 21 -82 35 -112 19 -14
-7 -18 -5 -18 8 0 14 -3 14 -18 -4 -14 -16 -22 -18 -30 -10 -17 17 -15 28 3
22 8 -4 15 -1 15 5 0 6 -4 12 -10 12 -5 1 -14 2 -19 3 -5 0 -12 4 -16 7 -13
14 -45 -4 -45 -24 0 -38 -30 4 -34 47 -1 21 -8 41 -14 45 -7 4 -8 19 -2 46 4
22 14 66 20 97 6 32 17 61 24 65 7 5 22 28 34 53 26 53 127 170 148 170 8 0
14 5 14 11 0 18 90 2 106 -19z m3511 -26 c4 -3 -6 -6 -22 -6 -16 0 -25 -3 -21
-7 3 -4 55 -8 114 -9 59 -2 108 -5 110 -8 6 -15 0 -26 -15 -27 -17 -1 -17 -2
0 -6 9 -2 15 -9 11 -14 -3 -5 -9 -7 -14 -4 -4 3 -97 5 -207 5 -170 1 -210 4
-280 22 -75 20 -107 38 -68 38 8 0 15 4 15 10 0 14 363 20 377 6z m-1091 -90
c-3 -23 -6 -49 -7 -58 0 -10 -6 -15 -15 -11 -16 6 -17 -11 -8 -106 7 -60 7
-61 38 -62 l31 -2 -35 -7 -35 -7 35 -3 c25 -2 29 -4 13 -7 -27 -5 -27 2 -8
-178 8 -77 15 -150 15 -162 0 -14 6 -23 15 -23 8 0 15 5 15 11 0 6 14 9 33 7
17 -2 31 -6 30 -10 -2 -5 -6 -8 -9 -7 -4 0 -11 -5 -15 -13 -8 -11 -10 -11 -18
1 -6 9 -11 10 -15 2 -4 -6 -1 -14 7 -17 17 -6 30 -44 16 -44 -5 0 -9 7 -9 15
0 8 -5 15 -11 15 -6 0 -9 -9 -6 -20 8 -30 -1 -24 -18 13 l-14 32 6 -30 c6 -27
5 -29 -10 -16 -13 10 -17 10 -17 1 0 -7 -7 -10 -15 -6 -8 3 -15 1 -15 -4 0 -6
7 -10 15 -10 27 0 85 -34 85 -49 0 -30 -16 -42 -42 -36 -16 4 -37 1 -55 -9
-20 -11 -23 -15 -10 -16 9 0 26 6 37 13 15 8 23 9 28 1 4 -6 15 -13 24 -17 22
-8 12 -47 -13 -47 -11 0 -19 -4 -19 -10 0 -17 20 -11 45 14 14 14 27 21 30 16
3 -5 1 -11 -5 -15 -16 -10 -12 -28 5 -22 8 4 17 2 20 -3 4 -6 -6 -10 -22 -11
-15 0 -22 -3 -15 -6 16 -6 16 -39 -1 -46 -7 -2 -45 -2 -85 1 -63 4 -70 6 -55
18 10 7 13 14 6 14 -6 0 -19 -7 -28 -16 -26 -27 -26 -11 0 56 27 69 27 88 -1
43 -10 -15 -19 -30 -20 -31 -8 -12 -44 13 -44 30 0 27 -15 13 -16 -15 -1 -12
-2 -30 -3 -40 0 -10 -6 -15 -11 -12 -6 4 -10 12 -9 18 3 27 -2 47 -11 47 -5 0
-10 -9 -10 -19 0 -24 -16 -36 -23 -19 -3 7 -6 0 -7 -17 -2 -26 -4 -23 -20 25
-11 30 -19 53 -20 50 -1 -3 -3 -13 -5 -23 -6 -30 -12 -30 -19 -2 -10 40 -27
19 -20 -26 4 -22 2 -39 -3 -39 -5 0 -26 15 -46 34 -37 33 -37 34 -37 9 0 -13
4 -33 10 -43 13 -25 -5 -30 -90 -26 -85 4 -83 4 -76 21 3 9 0 15 -9 15 -8 0
-15 6 -15 13 -1 6 -8 0 -16 -15 -8 -16 -21 -28 -29 -28 -19 0 -19 19 -1 39 10
11 12 21 6 31 -8 13 -10 12 -10 -2 0 -10 -7 -18 -15 -18 -9 0 -21 -11 -27 -25
-6 -14 -18 -25 -25 -25 -8 0 -11 5 -8 10 3 6 2 10 -3 10 -9 0 5 52 21 78 5 6
6 16 2 21 -3 6 5 19 17 30 12 12 17 21 11 21 -6 0 -27 -18 -47 -40 -34 -38
-65 -59 -34 -22 8 9 18 27 21 39 4 19 2 21 -12 13 -10 -5 -23 -16 -31 -24 -19
-24 -28 -19 -36 19 -3 19 -10 35 -15 35 -5 0 -9 7 -9 15 0 8 8 15 18 15 11 0
13 3 5 8 -8 5 -7 14 6 31 17 22 25 24 91 22 l73 -2 -6 45 c-4 25 -10 113 -13
196 l-7 150 -115 0 -115 0 7 -100 c6 -90 5 -102 -12 -120 -19 -21 -19 -20 -21
57 -1 43 -4 93 -7 111 l-6 32 -97 0 -97 0 4 -62 c3 -35 7 -71 11 -80 3 -9 4
-53 1 -97 -3 -45 -3 -81 0 -81 3 0 5 -16 5 -35 0 -19 -3 -35 -7 -35 -16 0 -23
61 -23 195 0 77 -2 129 -5 115 -3 -15 -6 -2 -10 35 l-5 60 -119 3 -119 3 7
-43 c4 -24 9 -53 13 -65 4 -17 1 -23 -11 -23 -9 0 -16 -1 -16 -2 1 -9 28 -77
39 -97 17 -31 -3 -19 -37 21 -13 15 -29 28 -35 28 -8 0 -8 -3 -2 -8 6 -4 22
-24 38 -44 28 -38 35 -68 16 -68 -8 0 -8 -4 -1 -13 6 -6 12 -28 14 -47 3 -31
7 -35 34 -38 21 -2 35 -11 44 -28 7 -13 17 -24 22 -24 4 0 8 -10 8 -22 0 -13
-4 -18 -8 -13 -4 6 -16 17 -26 25 -18 13 -19 13 -11 0 4 -8 15 -23 23 -33 15
-16 14 -17 -4 -11 -10 4 -23 13 -27 21 -4 7 -16 13 -25 13 -14 -1 -12 -5 8
-23 39 -34 70 -83 70 -108 l0 -23 -16 22 c-19 28 -34 28 -26 0 4 -16 2 -20
-10 -15 -12 4 -14 1 -11 -14 3 -10 0 -19 -6 -19 -6 0 -11 11 -11 24 0 12 -4
36 -10 52 -5 16 -11 52 -13 79 -2 28 -8 59 -14 70 -10 16 -13 17 -27 6 -14
-12 -16 -11 -9 5 6 16 5 17 -9 4 -11 -11 -13 -22 -7 -42 4 -16 4 -28 -2 -28
-5 0 -9 5 -9 10 0 6 -5 10 -11 10 -7 0 -9 -8 -4 -22 3 -13 12 -56 19 -95 l12
-73 -33 0 c-31 0 -33 2 -23 21 6 11 9 28 7 37 -2 11 -7 4 -14 -18 -9 -35 -10
-35 -64 -34 -102 3 -139 6 -139 10 0 9 49 54 59 54 5 0 17 -7 25 -16 15 -14
16 -14 16 5 0 12 -4 21 -10 21 -5 0 -10 7 -10 15 0 16 43 31 59 20 6 -3 11 -2
11 4 0 5 -9 13 -21 16 -11 4 -18 12 -16 18 5 17 45 21 63 7 11 -10 14 -9 14 5
0 11 5 15 15 11 21 -8 19 -2 -7 20 -21 18 -21 18 -15 0 6 -14 4 -17 -9 -12 -8
3 -21 6 -27 6 -8 0 -8 3 0 11 9 9 9 15 0 24 -7 7 -20 22 -29 33 -17 21 -48 20
-77 -2 -12 -9 -13 -8 -9 5 5 12 1 15 -16 12 -15 -3 -25 1 -29 12 -4 9 -3 14 2
11 5 -4 7 3 4 15 -4 16 -8 17 -14 7 -7 -10 -9 -8 -10 7 0 20 -1 20 -8 0 -12
-31 -22 204 -15 352 8 145 13 155 59 106 21 -23 27 -25 34 -14 6 10 11 -3 15
-40 25 -215 25 -215 19 -41 -5 170 -5 172 16 172 12 0 21 -6 22 -12 0 -9 2 -9
5 -2 7 17 45 4 42 -14 -2 -12 9 -15 62 -16 l65 -1 7 -40 c4 -22 7 -56 7 -76
l1 -37 116 -1 116 -2 -4 71 c-1 38 0 70 5 70 4 0 7 -17 7 -39 0 -21 3 -53 6
-70 l7 -31 114 0 115 0 -7 83 c-4 45 -4 79 0 75 4 -4 10 -40 13 -80 l7 -73
113 0 113 0 2 93 2 92 -125 2 c-69 1 -107 3 -85 5 22 3 48 11 57 20 15 13 37
15 139 10 108 -6 123 -9 140 -28 l19 -22 0 26 c0 45 7 52 53 49 154 -12 249
-13 262 -2 12 10 15 9 15 -3 0 -20 31 -31 42 -15 4 7 8 22 9 33 0 15 2 16 6 5
3 -8 11 -18 17 -22 8 -5 7 -8 -1 -8 -7 0 -13 -8 -13 -17 0 -14 2 -15 9 -4 6 9
11 10 15 2 12 -18 26 -12 27 12 0 20 1 20 8 3 10 -25 24 -5 14 21 -4 13 0 11
16 -7 l22 -25 -3 31 c-3 21 0 31 10 31 10 0 12 -10 8 -41z m266 -56 c15 0 17
3 8 19 -15 29 -15 28 48 19 31 -4 82 -6 112 -3 30 3 77 2 105 -4 27 -5 52 -6
55 -1 3 4 24 9 47 11 23 3 39 1 37 -3 -7 -10 2 -11 119 -8 65 1 97 -2 97 -9 0
-13 1 -13 -114 -11 l-88 1 6 -55 c3 -31 9 -80 12 -110 l6 -53 121 1 c88 1 121
-2 124 -11 3 -9 -10 -13 -46 -13 -28 0 -51 -4 -51 -10 0 -5 12 -7 28 -4 15 3
38 1 52 -5 20 -8 10 -10 -50 -10 -46 0 -67 3 -55 8 19 8 19 8 -3 20 -16 9 -27
9 -43 1 -11 -7 -26 -9 -33 -7 -7 3 -19 1 -27 -4 -9 -6 2 -9 36 -10 28 -1 40
-4 28 -6 -13 -2 -23 -8 -23 -12 0 -4 43 -5 95 -3 65 3 95 1 95 -7 0 -7 -39
-11 -122 -11 -67 0 -119 -2 -116 -5 3 -3 58 -6 122 -6 95 0 118 -2 123 -15 3
-8 3 -17 0 -20 -2 -3 -57 -6 -121 -7 l-116 -2 0 -30 c0 -16 4 -68 10 -114 10
-91 8 -96 -43 -119 -16 -7 -31 -21 -34 -32 -5 -19 -7 -19 -29 7 l-24 28 0 -32
c0 -17 6 -34 13 -36 6 -3 4 -6 -7 -6 -10 -1 -25 -9 -33 -18 -8 -10 -11 -12 -7
-4 5 10 1 11 -17 6 -21 -7 -22 -6 -11 7 13 16 7 48 -10 48 -5 0 -8 -8 -7 -17
3 -37 -2 -37 -20 2 -19 40 -19 40 -20 10 -1 -20 7 -36 26 -51 21 -16 27 -30
27 -62 1 -47 -10 -55 -24 -17 -11 30 -24 34 -15 5 8 -24 -16 -28 -35 -5 -7 9
-15 13 -18 10 -3 -3 -14 3 -25 12 -10 10 -21 17 -23 16 -14 -10 -36 0 -44 20
-5 12 -9 16 -9 9 -1 -7 -6 -10 -12 -7 -20 13 -55 -4 -67 -32 -6 -15 -9 -18 -6
-7 4 18 1 21 -22 16 -23 -4 -47 -38 -38 -54 2 -3 -5 -4 -17 -1 -16 5 -19 12
-17 42 2 29 8 37 26 39 28 4 29 22 1 22 -17 0 -19 4 -13 22 4 13 14 28 22 34
13 10 13 11 -1 17 -10 4 -19 -4 -28 -24 -16 -39 -30 -25 -32 32 -2 44 -2 44
31 43 39 -2 38 -5 17 201 -8 77 -15 143 -15 148 0 4 -18 7 -40 7 -29 0 -40 4
-40 15 0 11 12 15 49 15 l48 0 -3 93 c-2 74 -1 83 6 47 5 -25 9 -66 9 -92 l1
-48 116 0 c116 0 116 0 110 23 -3 12 -6 50 -6 85 l0 62 -103 0 -104 0 0 33 0
32 10 -27 c7 -17 18 -28 29 -28z m-2490 -354 c-5 -6 -8 -20 -6 -30 1 -11 4
-64 5 -118 2 -78 0 -101 -12 -109 -8 -5 -9 -9 -2 -9 18 0 11 -40 -7 -40 -9 0
-4 -6 10 -13 20 -10 27 -24 36 -75 10 -53 9 -62 -2 -58 -8 3 -14 1 -14 -4 0
-6 -9 -10 -20 -10 -11 0 -20 5 -20 12 0 6 -9 3 -20 -7 -11 -10 -20 -13 -20 -7
0 7 -7 12 -16 12 -8 0 -12 5 -9 10 3 6 2 10 -4 10 -5 0 -13 -4 -16 -10 -3 -5
-11 -10 -16 -10 -6 0 -8 4 -4 9 3 5 -5 13 -17 17 -40 12 -57 37 -61 89 -2 37
-4 30 -5 -29 -4 -147 -14 -69 -18 130 -4 210 2 252 12 88 9 -144 23 -152 24
-12 0 115 0 118 23 118 12 0 46 3 75 6 43 5 55 11 69 34 9 16 22 26 30 23 8
-3 10 -10 5 -17z m-3098 -106 c7 -17 15 -27 19 -23 4 3 7 1 7 -6 0 -7 7 -10
18 -7 21 6 57 -19 47 -33 -3 -6 -14 -11 -23 -11 -14 0 -15 -2 -3 -9 17 -11 50
3 69 31 14 19 62 25 62 7 0 -5 -5 -7 -10 -4 -6 4 -18 1 -26 -6 -14 -12 -14
-14 3 -27 16 -13 16 -14 1 -9 -11 4 -23 -1 -31 -13 -8 -11 -17 -17 -21 -12 -5
4 -6 -2 -4 -13 2 -13 -3 -20 -17 -22 -11 -1 -14 0 -7 3 6 3 12 15 12 27 0 12
-4 18 -8 12 -9 -12 -42 -13 -60 -1 -7 4 -16 5 -20 1 -3 -3 0 -10 8 -15 8 -5
11 -12 7 -16 -3 -4 -13 -1 -22 6 -13 11 -14 10 -9 -4 3 -9 11 -16 17 -16 20 0
-2 -12 -37 -20 -29 -6 -38 -5 -46 9 -5 9 -10 11 -10 5 0 -18 -30 -26 -30 -9 0
8 7 15 15 15 14 0 65 45 65 58 0 4 -9 8 -21 9 -16 2 -18 -1 -9 -12 9 -11 4
-17 -27 -31 -21 -10 -48 -17 -61 -16 -18 1 -22 -3 -17 -18 7 -23 -12 -63 -25
-55 -6 3 -7 -1 -4 -10 5 -12 9 -13 20 -4 12 9 13 6 8 -20 -5 -26 -3 -31 12
-33 29 -2 67 2 84 9 8 3 17 7 20 7 3 1 15 7 27 14 19 10 23 9 28 -8 6 -18 17
-24 38 -21 4 0 7 -13 7 -29 0 -20 -5 -30 -15 -30 -8 0 -15 -5 -15 -11 0 -5 -4
-7 -10 -4 -5 3 -10 2 -10 -2 0 -5 -25 -9 -55 -9 -50 1 -55 3 -55 24 0 17 -6
22 -25 22 -17 0 -29 -7 -35 -22 l-9 -23 0 24 c-1 20 -3 21 -16 11 -8 -7 -15
-23 -15 -36 0 -13 -6 -24 -12 -24 -9 0 -12 17 -10 60 3 51 1 60 -13 60 -12 0
-15 -5 -11 -16 5 -12 2 -15 -10 -10 -8 3 -20 6 -25 6 -16 0 -10 44 11 78 11
18 20 37 20 42 0 16 -22 11 -36 -7 -13 -17 -13 -17 -14 0 0 9 -7 17 -16 17
-12 0 -15 -6 -10 -25 7 -29 -10 -34 -19 -6 -3 11 -15 23 -26 26 -11 4 -18 14
-17 23 2 11 -3 16 -12 14 -11 -2 -11 1 3 11 9 8 17 23 17 33 0 14 8 20 28 22
19 1 23 -1 13 -7 -8 -5 -11 -16 -7 -26 4 -13 2 -16 -9 -11 -18 6 -21 -19 -4
-37 14 -15 101 -10 111 7 11 17 9 38 -3 31 -7 -5 -9 4 -7 26 3 25 12 37 36 51
27 15 32 15 32 3 0 -16 24 -18 55 -5 16 7 17 9 3 9 -23 1 -11 41 13 41 14 0
19 -7 19 -27 0 -22 2 -25 10 -13 6 10 10 11 10 3 0 -7 10 -13 23 -12 12 0 16
3 10 6 -7 2 -13 15 -13 28 0 22 5 25 53 34 4 0 14 -13 21 -29z m1811 -167 c0
-69 -14 -86 -30 -37 -8 26 -12 29 -23 18 -6 -7 -12 -20 -12 -29 0 -8 -4 -15
-10 -15 -5 0 -10 4 -10 9 0 5 -8 12 -18 15 -10 4 -23 18 -30 34 -10 25 -11 25
-5 2 3 -14 12 -33 21 -42 14 -16 13 -18 -4 -18 -10 0 -24 4 -30 8 -14 9 -17
91 -5 106 5 6 42 11 83 11 l73 0 0 -62z m-327 45 c-2 -7 6 -12 17 -13 13 0 21
-8 23 -22 4 -24 -13 -32 -21 -10 -2 6 -8 9 -12 4 -5 -4 4 -21 20 -37 16 -17
23 -30 15 -30 -7 0 -18 8 -25 17 -12 16 -14 16 -29 0 -20 -19 -32 -21 -41 -7
-3 5 -19 7 -34 4 -19 -4 -38 0 -56 12 -27 18 -28 18 -21 -4 5 -16 3 -22 -8
-23 -9 -1 -20 -3 -26 -4 -5 -1 -22 -3 -37 -4 -24 -1 -26 -3 -10 -12 21 -12 23
-33 2 -25 -8 3 -15 1 -15 -4 0 -6 -4 -10 -10 -10 -5 0 -10 7 -10 15 0 9 -6 12
-15 9 -8 -4 -15 -12 -15 -19 0 -7 -7 -16 -16 -19 -15 -6 -15 -4 -3 10 11 14
11 18 -6 30 -23 17 -42 18 -48 2 -3 -7 -6 -3 -6 8 -1 12 6 27 14 34 21 17 19
30 -5 30 -13 0 -20 -7 -20 -19 0 -11 -4 -23 -10 -26 -17 -11 -11 -24 20 -40
17 -9 30 -22 30 -30 0 -18 -12 -19 -28 -3 -8 8 -12 8 -12 1 0 -6 -19 -10 -46
-9 -25 1 -48 -2 -51 -6 -2 -5 -9 -6 -14 -2 -5 3 -7 10 -4 15 4 5 -1 9 -10 9
-9 0 -14 -4 -10 -9 8 -13 -10 -22 -29 -15 -18 7 -23 64 -5 64 5 0 7 5 4 10 -3
6 -1 10 4 10 6 0 11 -5 11 -11 0 -5 5 -7 11 -3 6 3 7 9 3 13 -13 9 -13 41 0
43 6 0 16 2 21 2 6 1 20 7 32 14 29 16 33 15 33 -6 0 -25 -36 -58 -43 -40 -4
10 -8 10 -16 -2 -8 -11 -6 -17 7 -22 16 -6 16 -7 0 -7 -10 -1 -18 -5 -18 -10
0 -12 26 -32 33 -25 3 3 15 1 26 -6 17 -9 21 -8 21 5 0 18 16 20 23 3 4 -10 6
-10 6 -1 1 7 -10 20 -23 28 -16 11 -22 22 -19 35 3 11 8 19 12 18 24 -3 31 4
25 25 -5 21 -2 24 25 25 17 0 31 -4 31 -11 0 -8 3 -8 11 0 14 14 39 6 39 -12
0 -7 7 -18 15 -25 12 -10 15 -10 15 1 0 11 2 11 10 -1 7 -11 10 -11 10 -2 0 7
4 11 9 8 5 -4 8 2 6 11 -1 11 -10 17 -21 16 -17 -1 -17 1 4 17 12 10 22 25 22
34 0 14 17 16 120 16 88 0 119 -3 118 -12z m-1947 -403 c5 4 9 -3 9 -15 0 -12
4 -19 9 -15 5 3 12 1 16 -5 3 -5 1 -10 -6 -10 -8 0 -10 -27 -8 -97 3 -71 1
-97 -8 -100 -7 -3 -13 3 -13 14 -1 17 -1 17 -15 -1 -16 -22 -21 -61 -6 -52 5
4 7 -3 4 -14 -10 -36 -23 -21 -23 26 0 25 -4 43 -9 40 -5 -3 -12 6 -15 21 -9
32 -21 22 -42 -33 l-15 -39 6 47 c4 29 2 49 -5 53 -13 8 -39 -23 -40 -47 0
-10 -7 -18 -15 -18 -9 0 -12 6 -8 18 12 32 48 79 58 75 6 -2 23 8 38 22 l27
26 21 -36 c24 -39 29 -44 22 -16 -3 10 0 21 5 25 6 4 7 20 1 43 -9 38 -11 133
-2 100 2 -9 9 -15 14 -12z m-1148 -72 c-2 -13 2 -23 8 -23 5 0 8 4 4 9 -3 5
-1 12 4 15 13 8 23 -42 12 -61 -7 -14 -10 -13 -16 7 -6 18 -9 20 -17 9 -7 -11
-11 -11 -15 -1 -8 19 -22 14 -20 -8 1 -14 8 -20 24 -20 15 0 23 -6 23 -17 0
-13 -3 -14 -12 -5 -20 20 -48 14 -49 -10 -1 -22 -1 -22 -8 2 -5 18 -14 25 -31
25 -33 0 -35 -17 -3 -38 l28 -18 -27 6 c-16 3 -28 1 -28 -5 0 -16 -30 -11 -37
6 -5 15 -7 15 -15 -1 -12 -20 -8 -24 22 -30 33 -6 34 -12 4 -19 -18 -5 -32 -2
-46 10 -17 16 -18 16 -13 1 4 -9 15 -19 26 -22 10 -4 19 -13 19 -20 0 -12 -6
-12 -41 0 -52 19 -49 19 -79 -6 -18 -15 -20 -19 -7 -15 10 3 27 1 39 -5 15 -8
22 -7 31 5 9 11 16 13 27 6 13 -8 13 -10 -2 -10 -11 0 -15 -6 -11 -18 4 -15
-1 -19 -29 -18 -18 0 -51 -3 -73 -7 l-40 -8 30 14 30 15 -33 -1 c-18 0 -35 -4
-38 -9 -3 -4 -11 -8 -17 -8 -7 1 -5 6 5 13 18 14 9 42 -14 42 -7 1 -12 6 -11
13 2 7 -1 12 -6 12 -5 0 -11 6 -14 14 -8 21 23 13 35 -8 7 -13 13 -15 17 -7 9
13 41 4 41 -11 0 -6 -8 -17 -17 -24 -17 -12 -17 -13 -1 -14 9 0 19 9 23 19 3
11 13 22 21 25 13 5 12 9 -6 28 -15 16 -17 24 -8 30 8 4 9 8 2 8 -21 0 -24
-14 -9 -37 19 -28 6 -30 -18 -3 -10 12 -22 18 -27 15 -6 -3 -20 1 -31 9 -19
13 -24 13 -44 0 -20 -13 -23 -13 -29 1 -4 11 -2 14 7 9 7 -4 9 -3 4 2 -5 5
-12 9 -15 9 -4 0 -13 4 -20 9 -8 5 -18 4 -25 -3 -8 -8 -5 -11 11 -11 20 0 21
-2 10 -20 -7 -11 -16 -20 -20 -20 -7 0 -18 29 -17 44 0 5 -5 12 -11 16 -8 5
-7 11 4 22 13 14 12 16 -11 16 -18 0 -21 -3 -12 -9 9 -5 9 -9 3 -9 -7 0 -14
-9 -17 -19 -3 -13 3 -22 20 -30 30 -14 22 -30 -12 -26 -30 3 -46 15 -20 15 14
0 15 3 5 15 -6 8 -9 23 -5 35 4 12 2 20 -5 20 -8 0 -11 -11 -8 -30 4 -29 -6
-42 -14 -19 -3 9 -9 9 -25 1 -11 -6 -35 -10 -52 -7 -21 2 -31 -1 -31 -10 0 -7
5 -15 11 -17 7 -2 0 -12 -14 -21 -22 -14 -25 -14 -21 -2 4 8 1 15 -6 15 -7 0
-9 8 -5 20 3 11 3 21 -2 21 -51 7 -66 7 -54 0 7 -5 18 -15 23 -22 7 -11 8 -10
4 4 -4 11 -2 17 5 15 19 -6 15 -23 -8 -33 -32 -14 -29 -20 20 -35 23 -8 45
-18 48 -23 3 -5 13 -1 22 7 8 9 20 16 26 16 15 0 14 20 -1 21 -12 0 18 17 34
18 10 1 -4 -43 -16 -51 -6 -5 -1 -8 12 -8 26 0 29 -15 5 -30 -12 -8 -13 -10
-3 -7 8 2 21 14 27 28 10 19 13 20 13 6 0 -11 7 -18 18 -16 28 2 58 -2 45 -7
-7 -3 -10 -11 -7 -18 7 -17 -116 -12 -127 5 -9 16 -39 4 -39 -16 0 -9 -4 -13
-10 -10 -5 3 -10 -3 -10 -14 0 -12 -4 -21 -10 -21 -15 0 -12 21 6 41 17 18 12
55 -5 44 -5 -3 -12 -1 -16 5 -3 5 -11 10 -18 10 -8 0 -8 -3 1 -12 18 -18 15
-33 -4 -17 -13 10 -17 10 -24 -2 -8 -11 -12 -11 -24 6 -11 14 -15 16 -16 5 0
-11 -3 -11 -12 -2 -10 10 -16 8 -30 -10 -14 -19 -18 -20 -18 -6 0 10 10 26 22
38 23 21 44 27 33 10 -3 -5 -2 -10 3 -10 6 0 12 7 16 15 6 18 -16 20 -45 5
-16 -9 -19 -7 -19 10 0 13 7 20 20 20 11 0 20 7 20 16 0 8 -5 12 -10 9 -20
-12 -24 28 -4 42 16 12 17 15 4 23 -8 5 -11 12 -7 17 5 4 17 -3 27 -17 16 -20
20 -22 20 -7 0 9 7 17 15 17 8 0 15 5 15 11 0 6 -7 8 -16 5 -14 -5 -15 -4 -5
8 10 12 8 15 -8 18 -14 2 -18 7 -13 16 6 8 19 10 40 6 17 -4 29 -10 26 -15 -3
-5 -1 -9 4 -9 6 0 13 7 16 16 5 12 16 15 46 12 22 -2 40 -1 40 2 0 4 57 6 127
6 113 -1 128 -3 131 -18 2 -12 -3 -18 -14 -18 -14 0 -15 -3 -6 -12 18 -18 14
-30 -8 -23 -24 7 -43 -2 -34 -17 4 -6 10 -5 15 3 6 9 9 10 9 2 0 -8 9 -9 32
-2 40 11 38 11 38 0 0 -5 -9 -13 -20 -16 -11 -4 -18 -11 -14 -16 3 -6 13 -8
21 -5 12 5 14 1 10 -14 -5 -18 -3 -19 22 -5 55 30 55 31 33 55 -16 17 -29 21
-52 18 -30 -5 -31 -3 -25 21 3 14 6 31 7 37 2 16 78 17 78 1 0 -7 4 -5 10 4 8
14 29 17 116 17 59 1 109 4 112 7 4 3 22 5 42 3 30 -3 35 -6 33 -25z m-1093
-17 c0 -2 3 -13 6 -23 5 -15 4 -16 -6 -3 -10 13 -11 13 -7 0 5 -19 44 -25 63
-9 8 6 17 9 21 5 3 -3 1 -6 -6 -6 -8 0 -11 -6 -7 -16 3 -8 2 -12 -4 -9 -6 3
-10 0 -10 -8 0 -23 12 -28 30 -12 15 14 17 12 15 -27 -3 -94 -2 -91 -34 -85
-36 8 -59 -14 -36 -33 21 -18 19 -32 -5 -25 -13 4 -20 2 -20 -6 0 -10 -3 -10
-11 -2 -14 14 -39 6 -39 -14 0 -8 5 -11 10 -8 11 7 40 -11 40 -25 0 -3 -7 -7
-15 -7 -9 0 -14 6 -11 13 5 14 -19 9 -42 -9 -11 -8 -12 -1 -7 39 9 67 12 107
14 187 1 60 3 69 24 77 25 10 37 12 37 6z m1957 -96 c-3 -10 1 -24 9 -31 8 -6
14 -19 14 -28 0 -14 -2 -14 -11 -1 -8 12 -10 9 -6 -13 2 -15 0 -30 -4 -33 -5
-3 -9 7 -9 22 0 22 -3 25 -12 16 -8 -8 -9 -18 -1 -34 6 -13 8 -37 6 -54 -4
-28 -2 -31 39 -43 42 -12 57 -25 100 -86 17 -25 14 -23 -18 9 -21 21 -48 42
-59 46 -70 26 -68 20 23 -72 58 -59 96 -106 102 -126 l9 -33 -32 7 c-55 13
-86 6 -72 -16 5 -8 11 -7 23 2 12 10 14 10 8 1 -5 -9 -1 -13 11 -14 17 -1 17
-2 0 -6 -11 -3 -16 -11 -13 -19 5 -12 1 -12 -24 1 -36 19 -70 21 -52 3 19 -19
14 -24 -20 -23 -18 0 -39 -4 -47 -9 -12 -9 -13 -8 -6 3 6 11 4 13 -8 8 -17 -6
-45 28 -33 41 3 3 6 0 6 -6 0 -7 13 -12 28 -12 15 0 33 -5 40 -12 8 -8 12 -9
12 -1 0 6 3 18 6 27 4 12 0 16 -15 16 -12 0 -21 6 -21 15 0 19 39 35 60 26 24
-11 123 -7 127 4 2 6 -45 58 -103 115 -111 110 -144 149 -144 172 0 11 2 11 9
0 11 -18 21 7 21 49 0 32 13 63 38 92 20 22 26 22 19 -3z m4358 -17 c-2 -10
-8 -38 -14 -63 -6 -25 -11 -68 -11 -97 0 -28 -5 -55 -10 -58 -8 -5 -7 -11 1
-21 10 -12 9 -13 -5 -8 -12 5 -15 2 -10 -10 10 -25 -12 -43 -56 -44 -34 -2
-40 1 -40 19 0 11 4 18 9 15 5 -3 11 3 14 14 4 14 0 20 -11 21 -15 1 -15 2 1
6 10 3 17 14 17 29 0 16 6 24 18 25 10 0 12 3 5 6 -23 9 -14 23 15 24 24 0 25
1 7 9 -11 5 -16 9 -12 9 4 1 3 10 -2 20 -9 16 -4 26 30 60 22 23 37 46 34 51
-4 6 1 10 9 10 9 0 13 -7 11 -17z m-2731 -23 c-5 -23 -3 -30 10 -30 9 0 16 -4
16 -10 0 -5 -12 -10 -27 -10 -29 0 -22 -15 12 -23 12 -3 7 -5 -15 -6 -19 -1
-43 -8 -52 -15 -20 -15 -23 -26 -7 -26 6 0 17 -7 25 -15 14 -13 5 -15 -76 -15
-57 0 -89 4 -85 10 3 6 -1 7 -9 4 -9 -3 -16 -1 -16 5 0 7 20 11 50 11 28 0 50
5 50 10 0 6 7 10 16 10 21 0 13 22 -13 35 l-21 11 21 17 c21 17 22 17 29 -5 4
-16 6 -18 7 -5 1 9 7 17 15 17 11 0 12 5 3 25 -12 24 -15 25 -85 21 -40 -3
-70 -1 -67 3 2 5 54 9 115 10 l110 2 -6 -31z m2281 -344 c41 -3 51 -7 53 -23
2 -11 -4 -25 -12 -32 -12 -10 -18 -9 -32 8 -21 24 -34 19 -34 -14 0 -32 -25
-45 -61 -32 -21 8 -34 8 -52 -2 -20 -11 -37 -11 -84 -2 -32 6 -64 12 -70 13
-7 1 -13 8 -13 17 0 9 -7 25 -15 35 -34 44 -24 47 128 41 78 -4 165 -8 192 -9z
m967 -38 c45 -1 47 -3 53 -35 5 -28 2 -38 -14 -52 -11 -10 -17 -22 -13 -26 4
-5 2 -5 -4 -2 -7 4 -17 0 -24 -8 -7 -8 -16 -12 -22 -9 -5 3 -15 0 -23 -6 -9
-7 -28 -10 -45 -6 -20 4 -30 1 -30 -7 -1 -15 -30 51 -30 67 0 7 3 6 9 -2 4 -7
6 12 3 44 l-5 56 49 -6 c27 -4 70 -7 96 -8z m677 -104 c12 -89 11 -97 -6 -117
-14 -17 -14 -19 -1 -9 21 17 25 9 29 -63 l4 -60 -32 -3 c-31 -3 -33 -1 -34 30
0 18 -2 42 -4 53 -10 62 -25 195 -25 228 0 34 2 37 28 37 28 0 29 0 41 -96z
m-221 -348 c-20 -15 -23 -26 -8 -26 16 0 50 -38 50 -56 0 -14 1 -14 16 0 23
23 47 21 39 -4 -4 -11 -2 -20 4 -20 6 0 11 -5 11 -11 0 -5 -4 -7 -10 -4 -5 3
-10 2 -10 -3 0 -5 10 -14 23 -20 16 -8 18 -11 5 -11 -9 -1 -24 -4 -34 -8 -12
-4 -15 -3 -10 5 4 7 2 12 -3 12 -6 0 -11 -4 -11 -9 0 -5 -8 -7 -18 -4 -15 4
-19 -1 -19 -25 0 -27 3 -30 26 -26 18 3 22 2 12 -5 -7 -5 -10 -14 -7 -20 12
-19 -19 -12 -42 9 l-22 21 -1 -28 c-1 -15 -1 -31 0 -35 0 -4 -7 -4 -16 -1 -10
4 -14 2 -10 -4 4 -6 0 -13 -8 -17 -18 -6 -29 10 -21 31 4 9 14 13 26 10 26 -7
26 9 0 23 -11 6 -20 17 -20 25 0 23 17 18 25 -7 6 -20 8 -20 12 -5 2 9 13 17
24 17 12 0 17 4 13 11 -3 6 -17 9 -31 6 -13 -2 -30 2 -38 9 -9 9 -16 10 -20 4
-3 -5 -2 -10 4 -10 6 0 4 -12 -4 -27 -8 -15 -12 -31 -8 -35 3 -5 -3 -8 -13 -6
-14 2 -20 -4 -22 -21 -3 -16 0 -21 8 -16 12 7 110 -86 110 -105 0 -5 -9 -10
-20 -10 -10 0 -25 -6 -32 -13 -15 -17 -51 -10 -44 8 3 8 -2 16 -10 19 -8 3
-14 1 -14 -5 0 -6 -4 -7 -10 -4 -5 3 -10 -1 -10 -9 0 -8 -5 -18 -11 -22 -9 -5
-10 1 -5 20 4 15 2 26 -4 26 -6 0 -13 -13 -16 -30 -4 -16 -10 -30 -15 -30 -5
0 -9 -9 -9 -21 0 -12 -11 -34 -23 -49 -23 -26 -24 -27 -35 -9 -10 16 -9 19 6
19 22 0 44 41 32 60 -4 7 -6 20 -3 29 4 14 3 14 -7 1 -9 -11 -13 -12 -17 -2
-7 17 -33 42 -44 42 -18 0 -9 -18 12 -23 11 -3 19 -12 17 -19 -2 -7 0 -14 5
-16 4 -1 13 -7 20 -14 18 -16 -8 -42 -47 -45 -25 -2 -27 0 -22 21 3 13 9 31
12 40 4 11 0 16 -14 16 -26 0 -38 -18 -18 -26 14 -5 14 -8 0 -21 -8 -9 -13
-22 -10 -29 3 -8 -4 -19 -15 -25 -19 -10 -20 -9 -9 10 10 19 8 21 -18 18 -15
-2 -34 -7 -41 -12 -9 -5 -12 -3 -9 5 2 7 19 18 38 24 19 6 36 19 38 28 5 25
-20 46 -49 43 -13 -1 -15 0 -5 2 15 4 16 7 5 13 -7 5 -10 12 -7 16 4 4 19 -1
32 -10 l25 -16 -10 30 c-7 19 -15 27 -25 23 -26 -10 -14 12 19 32 44 28 48 54
8 53 -16 -1 -32 -7 -35 -15 -5 -11 -10 -11 -26 -3 -17 9 -19 14 -9 26 9 11 8
14 -5 14 -9 0 -16 8 -16 17 0 14 4 12 25 -7 l25 -23 0 26 c0 15 4 27 8 27 5 0
8 -10 8 -22 -1 -14 6 -24 17 -26 9 -2 17 2 17 8 0 7 -7 10 -15 6 -8 -3 -15 -1
-15 5 0 6 9 13 20 16 11 3 20 12 20 20 0 8 5 11 11 8 6 -4 21 3 35 16 13 12
24 17 24 11 0 -7 5 -12 10 -12 6 0 10 7 10 16 0 8 5 12 10 9 6 -3 10 2 11 12
0 10 3 13 6 6 2 -7 16 -13 29 -13 17 0 24 6 24 20 0 21 8 24 34 14 9 -3 13
-10 10 -15 -3 -5 -10 -7 -15 -4 -5 4 -9 2 -9 -3 0 -5 12 -9 26 -9 15 0 30 -6
34 -13 6 -9 9 -9 15 0 6 9 10 9 16 -1 7 -11 9 -11 9 2 0 8 -5 20 -12 27 -9 9
-8 12 5 12 22 0 23 36 1 44 -9 3 -20 4 -25 0 -5 -3 -9 -1 -9 4 0 13 27 23 45
16 8 -4 15 -12 15 -20 0 -17 16 -18 26 -3 4 7 -1 16 -10 21 -28 16 -17 45 19
47 6 0 2 -6 -7 -13z m202 -70 c0 -9 7 -13 20 -11 11 2 20 -1 20 -8 0 -6 12
-22 28 -36 l27 -24 -26 6 c-15 4 -34 1 -46 -8 -11 -8 -23 -12 -26 -9 -3 3 -3
-4 0 -15 7 -28 23 -37 35 -20 7 10 7 7 3 -8 -5 -19 -3 -22 12 -16 10 4 25 15
34 25 20 22 26 23 26 3 0 -8 -4 -15 -9 -15 -4 0 -8 -4 -8 -10 0 -20 29 -9 32
12 2 13 11 24 21 26 16 3 17 1 8 -17 -7 -11 -9 -31 -5 -45 4 -17 0 -27 -13
-36 -13 -8 -14 -13 -5 -16 14 -7 16 -40 2 -49 -5 -3 -10 3 -10 14 0 12 -1 21
-3 21 -1 0 -17 -4 -36 -10 -32 -9 -33 -8 -28 15 3 20 2 23 -9 14 -11 -9 -14
-8 -14 4 0 8 12 20 28 25 19 8 22 11 8 11 -22 1 -86 38 -104 60 -12 15 -15 14
-28 -3 -24 -33 -26 -10 -2 28 16 26 29 35 44 33 11 -2 26 2 32 10 12 12 8 17
-9 15 -4 -1 -9 10 -12 23 -2 14 0 25 4 25 5 0 9 -6 9 -14z"/>
<path d="M2339 3863 c-1 -32 -3 -69 -4 -83 -1 -14 -4 -72 -5 -130 -3 -106 10
-140 20 -53 4 31 8 41 12 28 3 -11 3 0 1 25 -4 44 24 186 35 176 2 -3 18 2 35
11 37 19 95 23 108 7 5 -7 14 -31 18 -55 l9 -44 1 56 c1 31 4 71 7 88 l7 31
-122 0 -121 0 -1 -57z"/>
<path d="M1476 3880 c-3 -14 -8 -83 -11 -155 -4 -71 -9 -138 -11 -147 -5 -16
4 -18 100 -18 l106 0 0 35 0 35 -90 0 c-77 0 -89 2 -78 14 9 10 15 11 20 2 4
-6 8 4 8 22 0 20 -4 31 -10 27 -5 -3 -10 1 -10 9 0 9 8 16 19 16 13 0 21 8 23
23 2 16 9 21 25 19 17 -2 24 3 29 22 9 38 24 21 23 -27 -1 -40 -2 -40 -9 -12
-7 28 -8 28 -9 5 0 -14 3 -31 8 -38 11 -18 21 7 21 55 0 51 6 38 13 -27 4 -36
2 -48 -4 -35 -6 14 -7 8 -2 -20 11 -78 21 -62 29 46 3 46 8 103 11 126 l5 42
-101 3 c-100 3 -101 3 -105 -22z"/>
<path d="M1808 3633 l-118 -4 0 -44 0 -45 120 0 120 0 0 50 c0 28 -1 49 -2 48
-2 -1 -56 -4 -120 -5z"/>
<path d="M2370 2614 c-69 -6 -120 -12 -113 -13 8 -1 9 -25 6 -82 l-6 -80 121
3 120 3 6 35 c8 50 7 138 -1 142 -5 2 -64 -2 -133 -8z"/>
<path d="M1388 2602 c-15 -3 -18 -16 -18 -89 0 -74 2 -84 16 -79 9 3 63 6 120
6 l104 0 1 63 c0 34 5 71 10 82 6 14 8 -6 6 -62 l-2 -83 122 0 123 0 0 54 c0
29 3 68 6 85 l7 32 -239 -2 c-132 -2 -247 -4 -256 -7z"/>
<path d="M1115 2578 c-2 -13 -6 -51 -7 -86 l-3 -64 119 6 c66 3 120 7 121 8 1
2 5 38 8 81 l5 77 -119 0 c-115 0 -119 -1 -124 -22z"/>
<path d="M1106 2408 c-6 -19 -29 -389 -24 -393 1 -2 15 -1 30 2 28 5 44 28 28
38 -6 4 -10 -1 -10 -9 0 -9 -5 -16 -10 -16 -7 0 -7 7 0 21 7 11 9 27 6 34 -2
7 2 19 9 25 8 7 12 16 9 22 -3 5 0 15 6 23 10 12 9 15 -4 15 -18 0 -21 11 -7
25 5 6 11 21 13 35 2 15 11 26 22 28 10 2 28 13 39 23 26 24 28 24 55 -1 22
-21 26 -17 22 25 l-2 20 15 -20 c9 -11 11 -21 6 -23 -5 -2 -9 -15 -9 -28 0
-14 4 -22 10 -19 14 9 12 -19 -2 -33 -8 -8 -9 -12 -1 -12 6 0 9 -9 5 -22 -3
-14 -2 -19 6 -14 7 4 12 13 12 21 0 7 6 16 13 18 9 4 9 6 -1 6 -10 1 -11 26
-6 111 l7 110 -117 0 c-85 0 -118 -3 -120 -12z"/>
<path d="M1616 2278 c-4 -79 -9 -169 -13 -202 -5 -48 -3 -58 8 -54 8 3 20 15
26 29 7 13 13 20 13 16 0 -4 9 -3 20 3 11 6 20 16 20 23 0 8 -3 9 -8 1 -8 -13
-42 -15 -42 -2 0 4 7 8 15 8 10 0 15 10 14 33 -1 30 -1 31 -9 7 -7 -22 -8 -21
-9 13 -1 27 3 37 14 37 8 0 15 7 15 16 0 10 7 14 23 12 18 -2 21 1 19 20 -3
23 12 30 23 11 5 -6 13 -3 22 10 17 26 28 26 53 3 16 -15 19 -30 17 -90 -1
-39 1 -68 4 -64 4 4 10 76 14 160 l7 152 -120 0 -119 0 -7 -142z"/>
<path d="M7925 2643 c2 -16 7 -57 10 -93 l6 -65 112 3 112 3 -5 84 c-3 46 -8
87 -12 91 -5 4 -8 2 -8 -4 0 -8 -29 -12 -95 -12 -57 0 -95 4 -95 10 0 6 -6 10
-14 10 -10 0 -13 -9 -11 -27z"/>
<path d="M7943 2433 c3 -21 11 -108 18 -193 l12 -155 112 0 111 0 -7 54 c-4
30 -11 117 -15 193 l-7 138 -115 0 -115 0 6 -37z"/>
<path d="M8430 2461 c0 -9 7 -96 16 -193 l17 -178 109 0 110 0 -6 28 c-2 15
-10 103 -17 195 l-13 168 -108 -2 c-90 -2 -108 -5 -108 -18z"/>
<path d="M9163 3816 c4 -10 -9 -16 -51 -21 l-56 -7 34 -14 c19 -8 40 -12 47
-10 7 3 13 1 13 -4 0 -16 22 -11 36 7 7 10 16 14 21 9 4 -5 2 -11 -4 -13 -7
-3 -13 -12 -13 -20 0 -11 5 -9 18 7 17 21 19 21 25 6 4 -11 3 -15 -4 -10 -7 4
-9 0 -5 -13 5 -15 1 -19 -20 -21 -15 -1 -33 3 -40 9 -11 9 -14 8 -14 -6 0 -11
-5 -15 -15 -11 -8 3 -15 1 -15 -5 0 -5 -12 1 -27 15 -20 19 -29 22 -35 13 -6
-9 -10 -9 -17 3 -5 8 -7 18 -5 22 3 4 1 8 -5 8 -5 0 -13 -9 -16 -20 -3 -11
-11 -20 -16 -20 -6 0 -8 4 -5 9 3 5 -1 14 -9 21 -8 7 -15 20 -15 29 0 14 -2
14 -10 1 -5 -8 -15 -16 -22 -16 -7 -1 -19 -2 -26 -3 -8 -1 -12 -10 -10 -23 2
-19 9 -23 36 -22 17 1 32 -2 32 -7 0 -4 16 -11 35 -15 19 -3 32 -11 29 -16 -3
-5 0 -8 7 -7 8 1 21 0 29 -4 8 -3 31 -8 50 -12 19 -3 42 -7 50 -8 9 -2 21 -7
28 -11 7 -4 23 -9 35 -10 12 -2 41 -6 65 -10 23 -4 52 -9 65 -11 53 -6 103
-18 114 -27 7 -5 17 -7 22 -4 5 4 12 2 16 -4 3 -5 24 -10 46 -10 l40 0 -2 68
c-2 53 -6 71 -22 85 -27 23 -71 23 -65 -1 4 -14 -1 -17 -29 -16 -18 1 -33 -2
-33 -7 0 -5 -4 -9 -9 -9 -5 0 -7 10 -5 23 5 22 4 22 -7 1 -11 -21 -12 -21 -46
15 -19 20 -32 30 -28 24 9 -18 -5 -16 -27 4 -20 18 -25 5 -5 -16 10 -11 9 -13
-6 -8 -12 5 -20 0 -27 -16 -7 -17 -8 -11 -6 26 3 41 1 46 -11 35 -10 -8 -11
-14 -4 -16 6 -2 11 -8 11 -13 0 -6 -5 -7 -12 -3 -7 4 -8 3 -4 -4 4 -7 1 -12
-7 -12 -11 0 -13 12 -11 53 2 29 0 43 -4 32 -10 -28 -32 -30 -33 -2 l0 22 -9
-21 c-10 -25 -28 -39 -37 -30 -4 4 -1 12 5 18 15 15 16 38 1 38 -6 0 -9 -6 -6
-14z"/>
<path d="M0 2345 c0 -63 6 -75 26 -55 13 13 62 -9 68 -30 2 -8 4 0 5 18 1 37
16 43 25 10 9 -33 6 -46 -5 -23 -6 14 -7 10 -2 -15 3 -19 6 -69 6 -110 -1 -72
0 -70 12 40 8 63 16 141 20 173 l6 57 -81 0 -80 0 0 -65z"/>
<path d="M196 2358 c-3 -18 -10 -94 -16 -168 -6 -74 -13 -143 -16 -152 -4 -15
1 -18 30 -18 34 0 36 2 36 35 0 19 -3 35 -7 35 -5 0 -9 17 -9 38 -1 20 0 28 3
17 3 -11 10 -24 15 -30 8 -7 9 -6 3 3 -4 8 -4 37 -1 65 6 49 9 53 46 69 28 11
40 13 44 5 2 -7 5 -3 5 7 2 37 16 4 22 -52 l7 -57 -1 63 c-1 34 1 62 6 62 4 0
7 -36 7 -80 0 -44 -4 -80 -9 -80 -5 0 -7 -19 -5 -42 3 -32 2 -38 -5 -23 -9 19
-10 19 -10 -2 -1 -24 6 -28 25 -15 6 4 16 77 23 162 7 85 15 163 17 173 5 15
-4 17 -100 17 l-105 0 -5 -32z"/>
<path d="M8334 132 c-6 -29 -7 -29 -47 -19 -23 6 -45 15 -49 21 -4 6 -10 7
-14 4 -3 -4 1 -15 11 -24 12 -12 15 -27 12 -51 -4 -24 -1 -35 11 -43 16 -9 16
-9 1 -10 -19 0 -31 23 -23 43 3 8 -2 19 -10 26 -12 10 -16 8 -21 -9 -4 -12 -1
-27 5 -35 6 -8 9 -19 5 -25 -4 -6 12 -10 47 -9 29 1 45 3 36 6 -10 2 -18 8
-18 13 0 17 35 15 54 -2 24 -22 146 -27 129 -5 -6 6 -10 20 -10 31 0 18 1 18
14 0 12 -17 13 -17 13 3 0 19 -37 53 -57 53 -4 0 -1 -5 7 -10 9 -6 10 -10 3
-10 -6 0 -14 4 -17 9 -4 5 -22 8 -41 7 -29 -3 -35 0 -35 17 0 16 3 17 14 8 22
-18 25 2 4 22 -18 17 -19 16 -24 -11z"/>
</g>
</svg>
